<svg width="60" height="60" viewBox="0 0 60 60" fill="none" xmlns="http://www.w3.org/2000/svg">
<path fill-rule="evenodd" clip-rule="evenodd" d="M18.1656 50H41.8344C40.8834 44.3252 35.9452 40 30 40C24.0548 40 19.1166 44.3252 18.1656 50ZM42 52C43.1046 52 44.015 51.0994 43.8591 50.0059C42.8912 43.2185 37.055 38 30 38C22.945 38 17.1088 43.2185 16.1409 50.0059C15.985 51.0994 16.8954 52 18 52H42Z" fill="white"/>
<path fill-rule="evenodd" clip-rule="evenodd" d="M5.18969 50H23.8103C22.9207 45.378 19.0359 42 14.5 42C9.96411 42 6.07926 45.378 5.18969 50ZM4.99871 50C4.99786 49.9999 4.99745 49.9998 4.99746 49.9998L4.99871 50ZM24 52C25.1046 52 26.0169 51.0983 25.8422 50.0076C24.9327 44.3284 20.2008 40 14.5 40C8.79919 40 4.06724 44.3284 3.15777 50.0076C2.98311 51.0983 3.89542 52 4.99999 52H24Z" fill="white"/>
<path fill-rule="evenodd" clip-rule="evenodd" d="M36.1897 50H54.8103C53.9207 45.378 50.0359 42 45.5 42C40.9641 42 37.0793 45.378 36.1897 50ZM35.9987 50C35.9979 49.9999 35.9974 49.9998 35.9975 49.9998L35.9987 50ZM55 52C56.1046 52 57.0169 51.0983 56.8422 50.0076C55.9327 44.3284 51.2008 40 45.5 40C39.7992 40 35.0672 44.3284 34.1578 50.0076C33.9831 51.0983 34.8954 52 36 52H55Z" fill="white"/>
<path fill-rule="evenodd" clip-rule="evenodd" d="M30 38C32.7614 38 35 35.7614 35 33C35 30.2386 32.7614 28 30 28C27.2386 28 25 30.2386 25 33C25 35.7614 27.2386 38 30 38ZM30 40C33.866 40 37 36.866 37 33C37 29.134 33.866 26 30 26C26.134 26 23 29.134 23 33C23 36.866 26.134 40 30 40Z" fill="white"/>
<path fill-rule="evenodd" clip-rule="evenodd" d="M14.5 40C16.433 40 18 38.433 18 36.5C18 34.567 16.433 33 14.5 33C12.567 33 11 34.567 11 36.5C11 38.433 12.567 40 14.5 40ZM14.5 42C17.5376 42 20 39.5376 20 36.5C20 33.4624 17.5376 31 14.5 31C11.4624 31 9 33.4624 9 36.5C9 39.5376 11.4624 42 14.5 42Z" fill="white"/>
<path fill-rule="evenodd" clip-rule="evenodd" d="M45.5 40C47.433 40 49 38.433 49 36.5C49 34.567 47.433 33 45.5 33C43.567 33 42 34.567 42 36.5C42 38.433 43.567 40 45.5 40ZM45.5 42C48.5376 42 51 39.5376 51 36.5C51 33.4624 48.5376 31 45.5 31C42.4624 31 40 33.4624 40 36.5C40 39.5376 42.4624 42 45.5 42Z" fill="white"/>
<path fill-rule="evenodd" clip-rule="evenodd" d="M26 11H34C35.1046 11 36 11.8954 36 13V26C36 26.5523 36.4477 27 37 27C37.5523 27 38 26.5523 38 26V13C38 10.7909 36.2091 9 34 9H26C23.7909 9 22 10.7909 22 13V26C22 26.5523 22.4477 27 23 27C23.5523 27 24 26.5523 24 26V13C24 11.8954 24.8954 11 26 11Z" fill="white"/>
<path fill-rule="evenodd" clip-rule="evenodd" d="M44 2H52C53.1046 2 54 2.89543 54 4V5V6V10V41C54 41.5523 54.4477 42 55 42C55.5523 42 56 41.5523 56 41V10V6V5V4C56 1.79086 54.2091 0 52 0H44C41.7909 0 40 1.79086 40 4V29C40 29.5523 40.4477 30 41 30C41.5523 30 42 29.5523 42 29V4C42 2.89543 42.8954 2 44 2Z" fill="white"/>
<path fill-rule="evenodd" clip-rule="evenodd" d="M8 21H16C17.1046 21 18 21.8954 18 23V29C18 29.5523 18.4477 30 19 30C19.5523 30 20 29.5523 20 29V23C20 20.7909 18.2091 19 16 19H8C5.79086 19 4 20.7909 4 23V25V26V30V31V37C4 38.8675 5.27976 40.4361 7.01012 40.8766C7.54533 41.0128 8 40.5523 8 40C8 39.4477 7.52548 39.0207 7.04103 38.7555C6.42067 38.4159 6 37.7571 6 37V31V30V26V25V23C6 21.8954 6.89543 21 8 21Z" fill="white"/>
<path fill-rule="evenodd" clip-rule="evenodd" d="M54 56H6C5.44772 56 5 56.4477 5 57C5 57.5523 5.44772 58 6 58H45H46H50H51H54C54.5523 58 55 57.5523 55 57C55 56.4477 54.5523 56 54 56ZM51 60H50H46H45H6C4.34315 60 3 58.6569 3 57C3 55.3431 4.34315 54 6 54H54C55.6569 54 57 55.3431 57 57C57 58.6569 55.6569 60 54 60H51Z" fill="white"/>
</svg>
