<svg width="60" height="60" viewBox="0 0 60 60" fill="none" xmlns="http://www.w3.org/2000/svg">
<path d="M17 13C17 13.5523 16.5523 14 16 14C15.4477 14 15 13.5523 15 13C15 12.4477 15.4477 12 16 12C16.5523 12 17 12.4477 17 13Z" fill="white"/>
<path d="M13 13C13 13.5523 12.5523 14 12 14C11.4477 14 11 13.5523 11 13C11 12.4477 11.4477 12 12 12C12.5523 12 13 12.4477 13 13Z" fill="white"/>
<path d="M9 13C9 13.5523 8.55228 14 8 14C7.44772 14 7 13.5523 7 13C7 12.4477 7.44772 12 8 12C8.55228 12 9 12.4477 9 13Z" fill="white"/>
<path d="M47 41C47 40.4477 46.5523 40 46 40H14C13.4477 40 13 40.4477 13 41C13 41.5523 13.4477 42 14 42H46C46.5523 42 47 41.5523 47 41Z" fill="white"/>
<path d="M40 45C40 44.4477 39.6556 44 39.2308 44H20.7692C20.3444 44 20 44.4477 20 45C20 45.5523 20.3444 46 20.7692 46H39.2308C39.6556 46 40 45.5523 40 45Z" fill="white"/>
<path fill-rule="evenodd" clip-rule="evenodd" d="M30 36C33.3137 36 36 33.3137 36 30C36 26.6863 33.3137 24 30 24C26.6863 24 24 26.6863 24 30C24 33.3137 26.6863 36 30 36ZM30 38C34.4183 38 38 34.4183 38 30C38 25.5817 34.4183 22 30 22C25.5817 22 22 25.5817 22 30C22 34.4183 25.5817 38 30 38Z" fill="white"/>
<path fill-rule="evenodd" clip-rule="evenodd" d="M33.2929 29.7071C33.6834 29.3166 33.6834 28.6834 33.2929 28.2929C32.9024 27.9024 32.2692 27.9024 31.8787 28.2929L29 31.1716L28.1213 30.2929C27.7308 29.9024 27.0976 29.9024 26.7071 30.2929C26.3166 30.6834 26.3166 31.3166 26.7071 31.7071L28.2929 33.2929C28.6834 33.6834 29.3166 33.6834 29.7071 33.2929L30.405 32.5949C30.4081 32.5919 30.4112 32.5888 30.4142 32.5858L33.2929 29.7071Z" fill="white"/>
<path fill-rule="evenodd" clip-rule="evenodd" d="M7 10H53C54.1046 10 55 10.8954 55 12V16.5351C54.4117 16.1948 53.7286 16 53 16H7C6.27143 16 5.58835 16.1948 5 16.5351V12C5 10.8954 5.89543 10 7 10ZM5 20V47C5 48.1046 5.89543 49 7 49H21H22H26H28H53C54.1046 49 55 48.1046 55 47V26V25V21V20C55 18.8954 54.1046 18 53 18H7C5.89543 18 5 18.8954 5 20ZM28 51H26H22H21H7C4.79086 51 3 49.2091 3 47V20V12C3 9.79086 4.79086 8 7 8H53C55.2091 8 57 9.79086 57 12V20V21V25V26V47C57 49.2091 55.2091 51 53 51H28Z" fill="white"/>
</svg>
