<svg width="49" height="48" viewBox="0 0 49 48" fill="none" xmlns="http://www.w3.org/2000/svg">
<g clip-path="url(#clip0_1674:0)">
<path d="M47.0543 4.4268C46.9564 4.32844 38.9309 -5.3109 26.7947 4.23008C16.2245 12.6891 9.56915 4.72188 9.27553 4.4268C8.98191 4.13172 8.59043 3.935 8.19894 4.13172C7.80745 4.23008 7.51383 4.62352 7.51383 5.01697V20.1645C4.67553 19.1809 3.10957 17.2137 2.91383 17.1153C2.71809 16.7219 2.3266 16.6235 1.93511 16.7219C1.54362 16.9186 1.25 17.2137 1.25 17.7055V42.9842C1.25 43.1809 1.34787 43.476 1.44574 43.5743C1.54362 43.6727 5.06702 48.0006 11.1351 48.0006C14.0713 48.0006 17.6926 46.9186 21.7053 43.7711C32.2755 35.4104 38.9309 43.2793 39.2245 43.5743C39.5181 43.8694 39.9096 44.0661 40.3011 43.8694C40.6926 43.7711 40.9862 43.3776 40.9862 42.9842V27.8366C43.8245 28.9186 45.4883 30.8858 45.5862 30.8858C45.7819 31.0825 46.0755 31.2793 46.3691 31.2793C46.467 31.2793 46.5649 31.2793 46.6628 31.1809C47.0543 31.0825 47.3479 30.6891 47.3479 30.2957V5.01697C47.25 4.82024 47.1521 4.62352 47.0543 4.4268ZM39.0287 40.7219C35.9947 38.4596 29.3394 35.2137 20.5309 42.1973C10.8415 49.8694 4.47979 43.9678 3.20745 42.5907V19.8694C6.24149 22.1317 12.8968 25.3776 21.7053 18.394C31.3947 10.7219 37.7564 16.6235 39.0287 18.0006V40.7219V40.7219ZM45.2926 28.0334C44.3138 27.2465 42.8457 26.3612 40.9862 25.7711V17.7055C40.9862 17.5088 40.8883 17.2137 40.7904 17.1153C40.6926 17.017 32.667 7.37762 20.5309 16.9186C16.1266 20.4596 12.4074 21.0498 9.56915 20.6563V7.27926C12.6032 9.63992 19.2585 12.7875 28.067 5.80385C37.6585 -1.86828 44.0202 4.03336 45.2926 5.41041V28.0334Z" fill="#32D989"/>
<path d="M36.8755 33.7379C33.3521 31.8691 27.6755 30.8855 20.5308 36.5904C13.9734 41.7051 8.98191 40.8199 5.94787 39.0494C5.4585 38.7543 4.87127 38.951 4.57765 39.4428C4.28404 39.9347 4.47978 40.5248 4.96914 40.8199C6.5351 41.7051 8.59042 42.3937 11.0372 42.3937C14.0713 42.3937 17.5947 41.3117 21.6074 38.0658C27.9691 33.0494 32.8628 33.8363 35.8968 35.4101C36.3862 35.7051 36.9734 35.5084 37.1691 35.0166C37.5606 34.5248 37.3649 33.9347 36.8755 33.7379Z" fill="#32D989"/>
<path d="M36.8755 27.3444C33.3521 25.4755 27.6755 24.4919 20.5308 30.1968C20.1393 30.4919 20.0415 31.1804 20.3351 31.5739C20.5308 31.869 20.8245 31.9673 21.1181 31.9673C21.3138 31.9673 21.5096 31.869 21.7053 31.7706C28.067 26.7542 32.9606 27.5411 35.9947 29.1149C36.484 29.41 37.0713 29.2132 37.267 28.7214C37.5606 28.1313 37.3649 27.5411 36.8755 27.3444Z" fill="#32D989"/>
<path d="M36.8755 20.9513C33.3521 19.0825 27.6755 18.0989 20.5308 23.8038C20.1393 24.0989 20.0415 24.7874 20.3351 25.1808C20.5308 25.4759 20.8245 25.5743 21.1181 25.5743C21.3138 25.5743 21.5096 25.4759 21.7053 25.3775C28.067 20.3611 32.9606 21.148 35.9947 22.7218C36.484 23.0169 37.0713 22.8202 37.267 22.3284C37.5606 21.7382 37.3649 21.148 36.8755 20.9513Z" fill="#32D989"/>
<path d="M16.4202 27.7382L17.3989 27.2464L18.3776 27.7382L18.1819 26.7546L18.9649 25.9677L17.8883 25.771L17.3989 24.8857L16.9095 25.771L15.8329 25.9677L16.6159 26.7546L16.4202 27.7382Z" fill="#32D989"/>
<path d="M12.8968 28.7216L13.7777 28.2298L14.7564 28.7216L14.5606 27.738L15.3436 26.9511L14.267 26.7544L13.7777 25.8691L13.3862 26.7544L12.3096 26.9511L13.0925 27.738L12.8968 28.7216Z" fill="#32D989"/>
<path d="M9.27553 28.7216L10.2543 28.2298L11.1351 28.7216L10.9394 27.738L11.7223 26.9511L10.6457 26.7544L10.2543 25.8691L9.76489 26.7544L8.68829 26.9511L9.47127 27.738L9.27553 28.7216Z" fill="#32D989"/>
<path d="M5.65425 27.7382L6.63297 27.2464L7.6117 27.7382L7.41595 26.7546L8.19893 25.9677L7.12234 25.771L6.63297 24.8857L6.14361 25.771L5.06702 25.9677L5.85 26.7546L5.65425 27.7382Z" fill="#32D989"/>
<path d="M16.4202 35.6069L17.3989 35.1151L18.3776 35.6069L18.1819 34.6232L18.9649 33.8364L17.8883 33.6396L17.3989 32.7544L16.9095 33.6396L15.8329 33.8364L16.6159 34.6232L16.4202 35.6069Z" fill="#32D989"/>
<path d="M12.8968 36.5903L13.7777 36.0984L14.7564 36.5903L14.5606 35.6066L15.3436 34.8198L14.267 34.623L13.7777 33.7378L13.3862 34.623L12.3096 34.8198L13.0925 35.6066L12.8968 36.5903Z" fill="#32D989"/>
<path d="M9.27553 36.5903L10.2543 36.0984L11.1351 36.5903L10.9394 35.6066L11.7223 34.8198L10.6457 34.623L10.2543 33.7378L9.76489 34.623L8.68829 34.8198L9.47127 35.6066L9.27553 36.5903Z" fill="#32D989"/>
<path d="M5.65425 35.6069L6.63297 35.1151L7.6117 35.6069L7.41595 34.6232L8.19893 33.8364L7.12234 33.6396L6.63297 32.7544L6.14361 33.6396L5.06702 33.8364L5.85 34.6232L5.65425 35.6069Z" fill="#32D989"/>
<path d="M16.4202 31.6723L17.3989 31.1805L18.3776 31.6723L18.1819 30.6887L18.9649 29.9018L17.8883 29.7051L17.3989 28.8198L16.9095 29.7051L15.8329 29.9018L16.6159 30.6887L16.4202 31.6723Z" fill="#32D989"/>
<path d="M12.8968 32.6562L13.7777 32.1644L14.7564 32.6562L14.5606 31.6726L15.3436 30.8857L14.267 30.689L13.7777 29.8037L13.3862 30.689L12.3096 30.8857L13.0925 31.6726L12.8968 32.6562Z" fill="#32D989"/>
<path d="M9.27553 32.6562L10.2543 32.1644L11.1351 32.6562L10.9394 31.6726L11.7223 30.8857L10.6457 30.689L10.2543 29.8037L9.76489 30.689L8.68829 30.8857L9.47127 31.6726L9.27553 32.6562Z" fill="#32D989"/>
<path d="M5.65425 31.6723L6.63297 31.1805L7.6117 31.6723L7.41595 30.6887L8.19893 29.9018L7.12234 29.7051L6.63297 28.8198L6.14361 29.7051L5.06702 29.9018L5.85 30.6887L5.65425 31.6723Z" fill="#32D989"/>
<path d="M27.5481 8.80713L27.0995 9.79854L26.0102 9.91536L26.8222 10.6449L26.5976 11.7085L27.5481 11.168L28.4986 11.7085L28.274 10.6449L29.086 9.91536L27.9967 9.79854L27.5481 8.80713Z" fill="#32D989"/>
<path d="M20.6738 12.8169L20.2251 13.8083L19.1358 13.9251L19.9479 14.6547L19.7233 15.7183L20.6738 15.1778L21.6243 15.7183L21.3997 14.6547L22.2117 13.9251L21.1224 13.8083L20.6738 12.8169Z" fill="#32D989"/>
<path d="M23.5024 9.60937L23.0537 10.6008L21.9644 10.7176L22.7765 11.4472L22.5519 12.5108L23.5024 11.9702L24.4529 12.5108L24.2283 11.4472L25.0403 10.7176L23.951 10.6008L23.5024 9.60937Z" fill="#32D989"/>
<path d="M31.5896 9.60937L31.141 10.6008L30.0517 10.7176L30.8637 11.4472L30.6391 12.5108L31.5896 11.9702L32.5401 12.5108L32.3155 11.4472L33.1275 10.7176L32.0382 10.6008L31.5896 9.60937Z" fill="#32D989"/>
</g>
<defs>
<clipPath id="clip0_1674:0">
<rect width="48" height="48" fill="white" transform="translate(0.25)"/>
</clipPath>
</defs>
</svg>
