<svg width="60" height="60" viewBox="0 0 60 60" fill="none" xmlns="http://www.w3.org/2000/svg">
<path fill-rule="evenodd" clip-rule="evenodd" d="M20.5011 19.9919C21.3298 19.9919 22.0016 19.3214 22.0016 18.4943C22.0016 17.6673 21.3298 16.9968 20.5011 16.9968C19.6724 16.9968 19.0006 17.6673 19.0006 18.4943C19.0006 19.3214 19.6724 19.9919 20.5011 19.9919ZM20.5011 21.9887C22.4347 21.9887 24.0022 20.4242 24.0022 18.4943C24.0022 16.5645 22.4347 15 20.5011 15C18.5675 15 17 16.5645 17 18.4943C17 20.4242 18.5675 21.9887 20.5011 21.9887Z" fill="#32D989"/>
<path fill-rule="evenodd" clip-rule="evenodd" d="M33.4155 37.9402C35.0729 37.9402 36.4165 36.5992 36.4165 34.945C36.4165 33.2909 35.0729 31.9499 33.4155 31.9499C31.7582 31.9499 30.4146 33.2909 30.4146 34.945C30.4146 36.5992 31.7582 37.9402 33.4155 37.9402ZM33.4155 39.9369C36.1778 39.9369 38.4171 37.702 38.4171 34.945C38.4171 32.1881 36.1778 29.9531 33.4155 29.9531C30.6532 29.9531 28.4139 32.1881 28.4139 34.945C28.4139 37.702 30.6532 39.9369 33.4155 39.9369Z" fill="#32D989"/>
<path d="M45.0134 39.9369C45.0134 40.4882 44.5657 40.9352 44.0134 40.9352C43.4611 40.9352 43.0134 40.4882 43.0134 39.9369C43.0134 39.3855 43.4611 38.9385 44.0134 38.9385C44.5657 38.9385 45.0134 39.3855 45.0134 39.9369Z" fill="#32D989"/>
<path fill-rule="evenodd" clip-rule="evenodd" d="M16.0049 39.9366C16.5573 39.9366 17.0052 39.4897 17.0052 38.9383C17.0052 38.3869 16.5573 37.9399 16.0049 37.9399C15.4524 37.9399 15.0045 38.3869 15.0045 38.9383C15.0045 39.4897 15.4524 39.9366 16.0049 39.9366ZM16.0049 41.9334C17.6623 41.9334 19.0058 40.5924 19.0058 38.9383C19.0058 37.2841 17.6623 35.9431 16.0049 35.9431C14.3475 35.9431 13.0039 37.2841 13.0039 38.9383C13.0039 40.5924 14.3475 41.9334 16.0049 41.9334Z" fill="#32D989"/>
<path fill-rule="evenodd" clip-rule="evenodd" d="M44.0137 12.8866C46.776 12.8866 49.0153 10.6516 49.0153 7.89468C49.0153 5.13772 46.776 2.90277 44.0137 2.90277C41.2514 2.90277 39.0121 5.13772 39.0121 7.89468C39.0121 10.6516 41.2514 12.8866 44.0137 12.8866ZM44.0137 14.8834C47.8809 14.8834 51.016 11.7544 51.016 7.89468C51.016 4.03494 47.8809 0.906006 44.0137 0.906006C40.1465 0.906006 37.0115 4.03494 37.0115 7.89468C37.0115 11.7544 40.1465 14.8834 44.0137 14.8834Z" fill="#32D989"/>
<path fill-rule="evenodd" clip-rule="evenodd" d="M53.5162 26.9579C55.4498 26.9579 57.0173 25.3934 57.0173 23.4635C57.0173 21.5336 55.4498 19.9692 53.5162 19.9692C51.5825 19.9692 50.015 21.5336 50.015 23.4635C50.015 25.3934 51.5825 26.9579 53.5162 26.9579ZM53.5162 28.9546C56.5547 28.9546 59.0179 26.4962 59.0179 23.4635C59.0179 20.4309 56.5547 17.9724 53.5162 17.9724C50.4776 17.9724 48.0144 20.4309 48.0144 23.4635C48.0144 26.4962 50.4776 28.9546 53.5162 28.9546Z" fill="#32D989"/>
<path fill-rule="evenodd" clip-rule="evenodd" d="M49.7668 48.5515L49.463 46.5747C49.9733 46.4963 50.3152 46.0201 50.2337 45.5205L50.1407 44.9504C49.7948 42.8295 50.8673 40.7322 52.7854 39.7672L53.3022 39.5071C53.4745 39.4204 53.6083 39.2872 53.695 39.13C49.9744 37.8404 46.678 35.2581 44.553 31.5846C42.3139 27.7139 41.7757 23.324 42.7071 19.2877C42.7693 19.0181 42.5647 18.6584 42.2925 18.5752C38.3271 17.363 34.7881 14.7043 32.5491 10.8338C31.7448 9.44327 31.1587 7.98327 30.7821 6.49471C30.7796 6.48485 30.7605 6.41902 30.6598 6.28345C30.5549 6.14213 30.4039 5.98042 30.1797 5.76567C30.1503 5.7375 30.1212 5.7089 30.0924 5.67985L29.6849 5.26968C29.3232 4.90555 28.7318 4.90555 28.3701 5.26967L27.9627 5.67985L26.5438 4.27036L26.9512 3.86018C28.095 2.70871 29.96 2.70872 31.1038 3.86018L31.5113 4.27036C31.5285 4.28765 31.5458 4.30469 31.5633 4.32147C32.0616 4.79881 32.552 5.33585 32.721 6.00419C33.0528 7.31536 33.5693 8.60322 34.2803 9.83231C36.2559 13.2474 39.3756 15.5921 42.8772 16.6626C44.1511 17.052 44.9549 18.4416 44.6559 19.7374C43.834 23.2992 44.3087 27.168 46.2842 30.5831C48.2107 33.9135 51.2254 36.226 54.6213 37.3314C55.2322 37.5303 55.7918 37.9693 55.8084 38.6104C55.8367 39.7035 55.2455 40.7683 54.2011 41.2938L53.6843 41.5538C52.5449 42.127 51.9096 43.3715 52.1147 44.6284L52.2076 45.1985C52.4687 46.7989 51.3725 48.3048 49.7668 48.5515ZM49.1948 48.6394C47.9337 48.8332 46.9442 49.8209 46.75 51.0795L46.6619 51.6504C46.4147 53.2529 44.9059 54.347 43.3024 54.0865L42.7312 53.9937C41.4718 53.7891 40.2249 54.4231 39.6506 55.5603L37.8654 54.6586C38.8337 52.7415 40.9337 51.6754 43.052 52.0196L43.6232 52.1124C44.1337 52.1953 44.608 51.8467 44.6853 51.3454L44.7734 50.7746C45.101 48.6511 46.7695 46.9887 48.891 46.6627L49.463 46.5747L49.7668 48.5515L49.1948 48.6394ZM39.3901 56.0761L39.6506 55.5603L37.8654 54.6586L37.6049 55.1744C37.375 55.6295 36.8139 55.8139 36.3549 55.578L35.8404 55.3136C33.9315 54.3325 31.6054 54.6996 30.0924 56.2227L29.6849 56.6329C29.3232 56.997 28.7318 56.997 28.3701 56.6329L27.9627 56.2227C26.4497 54.6996 24.1235 54.3325 22.2146 55.3136L21.7001 55.578C21.2411 55.8139 20.68 55.6295 20.4502 55.1744L20.1897 54.6586C19.2213 52.7415 17.1214 51.6754 15.0031 52.0196L14.4319 52.1124C13.9213 52.1953 13.447 51.8467 13.3697 51.3454L13.2816 50.7746C12.954 48.6511 11.2856 46.9887 9.16401 46.6627L8.59204 46.5748C8.08174 46.4963 7.7398 46.0201 7.8213 45.5205L7.91429 44.9504C8.26025 42.8295 7.18776 40.7322 5.26964 39.7672L4.75287 39.5071C4.29405 39.2763 4.11543 38.72 4.34809 38.2691L4.61303 37.7556C5.59831 35.846 5.22849 33.5195 3.70154 32.0086L3.29057 31.6019C2.92788 31.243 2.92788 30.6595 3.29057 30.3006L3.70155 29.894C5.22849 28.383 5.59831 26.0566 4.61304 24.147L4.34809 23.6335C4.11543 23.1826 4.29404 22.6263 4.75287 22.3954L5.26963 22.1354C7.18777 21.1703 8.26025 19.0731 7.91429 16.9522L7.8213 16.3821C7.7398 15.8824 8.08173 15.4062 8.59203 15.3278L9.16401 15.2399C11.2856 14.9139 12.954 13.2514 13.2816 11.128L13.3697 10.5571C13.447 10.0559 13.9213 9.70722 14.4319 9.79017L15.0031 9.88298C17.1214 10.2272 19.2213 9.16107 20.1897 7.24395L20.4502 6.72818C20.68 6.27309 21.2411 6.08866 21.7001 6.32455L22.2146 6.58899C24.1235 7.57008 26.4497 7.20299 27.9627 5.67985L26.5438 4.27036C25.6454 5.17471 24.2632 5.39321 23.1289 4.81018L22.6144 4.54574C21.17 3.8034 19.3963 4.3786 18.665 5.82649L18.4045 6.34226C17.8301 7.47941 16.5832 8.1135 15.3238 7.90887L14.7526 7.81606C13.1491 7.55552 11.6403 8.64961 11.3931 10.2522L11.305 10.8231C11.1108 12.0817 10.1213 13.0693 8.86022 13.2631L8.28824 13.351C6.68256 13.5978 5.58634 15.1037 5.84739 16.7041L5.94038 17.2741C6.1454 18.5311 5.51009 19.7755 4.37073 20.3488L3.85396 20.6088C2.40326 21.3387 1.82694 23.109 2.57072 24.5505L2.83567 25.064C3.41983 26.1962 3.20092 27.5757 2.29481 28.4723L1.88383 28.879C0.73013 30.0206 0.730128 31.882 1.88383 33.0236L2.29481 33.4302C3.20091 34.3268 3.41983 35.7063 2.83567 36.8385L2.57072 37.352C1.82694 38.7936 2.40326 40.5639 3.85396 41.2938L4.37073 41.5538C5.51009 42.127 6.1454 43.3715 5.94038 44.6284L5.84739 45.1985C5.58634 46.7989 6.68256 48.3048 8.28824 48.5515L8.86022 48.6394C10.1213 48.8332 11.1108 49.8209 11.305 51.0795L11.3931 51.6504C11.6403 53.2529 13.1491 54.347 14.7526 54.0865L15.3238 53.9937C16.5832 53.7891 17.8301 54.4231 18.4045 55.5603L18.665 56.0761C19.3963 57.524 21.17 58.0992 22.6143 57.3568L23.1289 57.0924C24.2632 56.5094 25.6454 56.7278 26.5437 57.6322L26.9512 58.0424C28.095 59.1938 29.96 59.1938 31.1038 58.0424L31.5113 57.6322C32.4096 56.7278 33.7918 56.5094 34.9262 57.0924L35.4407 57.3568C36.885 58.0992 38.6588 57.524 39.3901 56.0761Z" fill="#32D989"/>
</svg>
