<svg width="177" height="165" viewBox="0 0 177 165" fill="none" xmlns="http://www.w3.org/2000/svg">
<g clip-path="url(#clip0_985:5105)">
<g filter="url(#filter0_i_985:5105)">
<path d="M45.0368 87.5272C45.0368 87.5272 47.4099 89.654 50.2928 89.3161C53.1757 88.9782 54.7366 87.4277 54.7366 87.4277C54.7366 87.4277 57.4643 84.1843 59.1633 84.5982C60.8623 85.0121 63.1467 85.5931 65.7171 84.2072C68.3285 82.7694 69.2843 80.4882 69.2843 80.4882C69.2843 80.4882 70.5901 77.9773 72.7676 78.0522C74.945 78.127 77.5814 77.2993 78.8033 76.0715C80.0252 74.8437 80.9436 73.84 81.2625 72.1522C81.5814 70.4643 82.3573 69.053 84.8352 68.4796C87.3131 67.9062 89.6369 66.0305 90.3193 63.8285C91.0016 61.6265 90.505 59.4212 90.505 59.4212C90.505 59.4212 91.1499 58.4968 91.8254 58.229C92.5474 57.9557 96.2876 55.301 96.5075 52.7759C96.7273 50.2508 95.6477 47.5008 95.6477 47.5008C95.6477 47.5008 101.666 43.7774 96.3234 35.6797C96.3234 35.6797 98.0965 28.3512 90.7194 24.9718C90.7194 24.9718 88.764 17.6088 81.7133 19.3783C81.7133 19.3783 78.8511 13.9136 73.0019 16.6741C71.8889 17.2289 70.9999 17.286 70.9999 17.286C70.9999 17.286 69.6449 15.7943 68.0964 15.4571C66.5479 15.1199 65.6345 15.3684 64.319 15.8055C63.0036 16.2427 60.7483 18.299 59.3913 17.9865C58.4858 17.904 58.6137 16.993 55.1673 17.3498C54.4809 17.5246 52.3095 18.2978 50.7186 19.9933C49.1278 21.6888 48.0088 21.3955 48.0088 21.3955C48.0088 21.3955 45.4893 21.2192 44.5758 21.4678C43.6624 21.7163 41.439 22.4485 39.5152 25.3148C38.5068 26.7533 36.8959 27.0836 36.8959 27.0836C36.8959 27.0836 32.678 27.2951 30.5327 30.2816C28.6769 32.5269 30.5888 32.3499 27.305 34.4796C25.1777 35.6249 24.1652 35.0363 21.6919 38.4385C20.5991 40.3585 22.0081 40.7121 20.5922 42.2928C19.1763 43.8734 18.1723 43.7553 16.9504 44.9831C15.7285 46.2109 13.244 45.1346 15.2044 51.7425C15.2044 51.7425 14.4065 52.9678 12.8016 54.1462C11.1967 55.3246 10.8869 58.2846 11.1719 59.1C11.4105 59.9209 11.2795 60.4078 12.4296 62.1593C12.4296 62.1593 7.63195 66.6356 13.6377 72.7694C13.6377 72.7694 13.1421 80.1367 20.9451 82.3344C20.9451 82.3344 24.9335 90.5437 31.8406 86.7633C31.8406 86.7633 34.3878 91.5576 40.1256 89.8476C43.3169 88.5304 43.3629 87.7234 45.0368 87.5272Z" fill="url(#paint0_radial_985:5105)"/>
</g>
<g filter="url(#filter1_d_985:5105)">
<path d="M87.3783 25.0835C88.8991 25.1885 91.1693 25.253 90.9824 27.256C90.7979 28.8814 88.3078 30.5408 89.6906 32.2658C90.6597 33.2844 92.9189 33.2559 92.8084 35.1084C92.8082 37.8915 87.5144 39.3601 89.481 42.4319C89.9766 43.0343 90.6582 43.6149 90.7109 44.4578C90.755 44.83 90.6652 45.265 90.4768 45.6644C89.3498 48.485 85.097 48.7941 84.3804 51.8968C84.0943 53.0624 84.831 54.1083 84.5449 55.2739C84.1524 56.7349 82.8734 57.8752 81.5392 58.5502C80.4211 59.0584 79.1823 59.3449 78.0751 59.9462C76.834 60.6103 75.741 61.7288 75.3374 63.0968C75.1002 63.8793 75.0079 64.692 74.6257 65.4443C73.8147 66.9543 72.2458 68.0341 70.5476 68.4216C68.606 68.7431 66.4752 68.6623 64.8929 70.0268C63.6328 70.929 63.0543 72.4118 62.1583 73.6016C60.5955 75.5298 57.9652 76.4036 55.6067 75.5947C54.0938 75.1586 52.4587 75.6801 51.1466 76.5413C50.015 77.3341 49.2065 78.4665 48.1158 79.2073C46.3309 80.454 44.0174 80.8191 42.3201 79.2252C41.3265 78.3981 39.9152 78.4218 38.7395 78.8424C36.7545 79.5936 35.0058 81.5435 32.7656 81.334C31.9122 81.2924 31.1597 80.9087 30.787 80.1505C30.4309 79.5318 30.2907 78.7463 29.6776 78.3463C28.3885 77.4123 26.636 78.1362 25.2798 78.6252C23.9756 79.1552 22.2145 79.4084 21.3572 78.1408C20.6095 77.0019 21.7018 75.0816 20.4182 74.1941C19.1236 73.2135 17.1772 74.2904 15.7982 73.7914C15.1087 73.5419 14.6651 72.9806 14.6234 72.2307C14.4825 70.6434 16.5976 68.6034 14.9745 67.2368C14.1944 66.6205 12.7642 66.8822 12.066 66.162C10.5217 64.2673 13.1293 62.4055 13.8252 60.7203C14.9468 57.8531 11.4984 58.5869 12.1006 56.1107C12.6564 53.64 16.1291 52.7147 16.3373 50.096C16.3586 49.4802 16.0191 49.0011 15.8134 48.4591C15.1824 46.316 17.5851 44.714 19.2171 43.7683C20.5347 42.9537 22.0351 41.6932 21.9817 40.0485C21.8242 38.3216 22.9771 36.9131 24.3877 36.0876C25.3089 35.5081 26.4082 35.2379 27.3869 34.746C28.721 34.071 29.8605 32.9471 30.3051 31.5271C30.7496 30.1072 31.8891 28.9832 33.1822 28.3602C33.9805 27.9366 34.9048 27.7812 35.7827 27.6313C37.4974 27.3835 39.1239 26.3912 40.0853 24.9579C41.1177 23.3276 42.7521 22.0043 44.7048 21.7757C45.6346 21.6669 46.4691 21.9466 47.3989 21.8378C49.636 21.6232 51.0593 19.7113 52.8032 18.5166C53.9458 17.8168 55.488 17.3062 56.7684 17.7695C60.367 19.8956 62.5351 15.9154 65.8526 15.6686C68.6996 15.4298 67.66 18.193 70.9799 17.5686C72.7301 17.2222 74.5504 15.8771 76.3943 16.3217C77.0728 16.4781 77.6338 16.837 77.763 17.5294C77.9087 18.3615 77.978 19.3439 78.9109 19.6593C80.4514 20.328 82.3513 19.2566 83.9352 19.4958C86.006 19.8667 85.8294 21.1609 85.3194 22.8244C85.0034 24.135 86.1475 25.0388 87.3783 25.0835ZM33.2314 46.2791C34.0069 44.8676 33.0432 43.8955 31.572 44.2092C30.0488 44.4818 27.7446 46.1194 28.378 47.8849C28.9642 48.854 30.3424 48.5512 31.2337 48.1167C32.032 47.6931 32.7617 47.0888 33.2314 46.2791ZM43.6119 65.0645C44.2699 63.8554 43.6451 62.5605 42.2283 62.5377C40.3931 62.5638 38.3458 63.9826 38.0959 65.8515C37.9744 67.6111 40.2446 67.6756 41.3983 67.0688C42.336 66.6289 43.1532 65.9672 43.6119 65.0645ZM61.8274 28.6398C62.2151 27.9341 62.0639 27.0555 61.2294 26.7758C59.763 26.3342 57.986 27.2498 57.09 28.4395C56.1474 29.6348 56.6327 30.9459 58.271 30.8485C59.6713 30.7318 61.1283 29.9009 61.8274 28.6398ZM74.6625 45.8643C75.3096 44.5621 74.3349 43.4969 72.9291 43.5671C71.3784 43.6071 69.7928 44.5474 69.1103 45.948C68.215 47.9396 70.3765 48.6772 71.9541 48.0681C73.0888 47.6994 74.1794 46.9586 74.6625 45.8643ZM43.8393 35.5564C44.9465 34.9551 46.5037 32.9804 44.8537 32.1829C43.1738 31.5305 39.6119 33.6927 40.4588 35.669C41.2885 36.704 42.8716 36.1414 43.8393 35.5564ZM51.5498 47.7202C54.9612 45.4813 53.0056 42.5026 49.5721 44.5554C46.1088 46.7532 48.0699 49.7784 51.5498 47.7202ZM30.4684 60.7536C31.5181 60.0647 32.7806 58.7849 32.2023 57.4846C30.9589 55.7433 27.9219 57.561 27.1574 59.0656C25.8933 61.5249 28.812 61.8908 30.4684 60.7536ZM72.6311 34.6868C73.6398 34.0499 74.8502 32.729 74.1025 31.5901C72.8213 30.3249 70.5384 31.3468 69.4454 32.4653C67.0875 35.2413 70.4908 36.1166 72.6311 34.6868ZM60.186 61.3323C63.8188 58.9731 61.6277 55.5974 57.9263 57.7759C54.2935 60.1351 56.4846 63.5107 60.186 61.3323Z" fill="url(#paint1_radial_985:5105)"/>
<path d="M89.0564 32.7735L89.078 32.8004L89.1018 32.8255C89.4468 33.1881 89.8767 33.4286 90.2454 33.609C90.4041 33.6867 90.5678 33.7607 90.718 33.8287C90.7448 33.8408 90.7712 33.8527 90.797 33.8644C90.974 33.9447 91.1321 34.018 91.278 34.0943C91.5773 34.2509 91.7565 34.3869 91.8608 34.5221C91.945 34.6311 92.0135 34.7801 91.9968 35.059L91.9954 35.0831L91.9954 35.1072C91.9954 35.5324 91.7958 35.9672 91.3788 36.4841C91.0795 36.855 90.7345 37.1938 90.3552 37.5661C90.1854 37.7329 90.0087 37.9064 89.8262 38.0925C89.2835 38.6459 88.6905 39.3135 88.4058 40.108C88.0953 40.9742 88.1783 41.9039 88.7964 42.8693L88.8226 42.9102L88.8534 42.9477C88.9596 43.0767 89.076 43.2078 89.1809 43.3258C89.2101 43.3588 89.2385 43.3907 89.2655 43.4212C89.397 43.5702 89.5099 43.7028 89.6066 43.8346C89.7987 44.0965 89.8867 44.3032 89.8995 44.5074L89.9009 44.5299L89.9035 44.5523C89.9255 44.7379 89.8818 45.0191 89.7413 45.317L89.7308 45.3392L89.7217 45.362C89.2911 46.4398 88.2806 47.0778 86.9734 47.9031C86.9291 47.9311 86.8844 47.9593 86.8395 47.9877C85.5764 48.7861 84.0335 49.7949 83.5894 51.7078C83.4045 52.4675 83.549 53.1741 83.6556 53.6958L83.666 53.7465C83.783 54.3207 83.8473 54.695 83.7572 55.071C83.4471 56.2104 82.4068 57.196 81.1864 57.8172C80.7532 58.0131 80.3019 58.1732 79.8108 58.3474C79.718 58.3804 79.6239 58.4138 79.5282 58.448C78.9375 58.6593 78.301 58.8983 77.6891 59.2303C76.3106 59.9684 75.0393 61.2373 74.5586 62.8624C74.4729 63.1456 74.3994 63.4533 74.3334 63.7298C74.3035 63.8548 74.2752 63.9734 74.248 64.0805C74.1534 64.4521 74.0532 64.7729 73.9048 65.0673C73.2222 66.3316 71.8794 67.2771 70.3891 67.6238C69.9909 67.6889 69.5839 67.7368 69.1541 67.7874C69.0934 67.7946 69.0323 67.8017 68.9706 67.8091C68.4727 67.8681 67.9478 67.9337 67.4282 68.0355C66.3951 68.2377 65.3231 68.5929 64.389 69.3873C63.6528 69.9227 63.1356 70.6086 62.7087 71.2604C62.5357 71.5244 62.3849 71.7692 62.2415 72.0021C62.0026 72.39 61.784 72.7449 61.5173 73.1004C60.1484 74.7804 57.872 75.5128 55.8696 74.826L55.8505 74.8194L55.831 74.8138C54.0004 74.2861 52.1157 74.9324 50.6998 75.8616L50.6895 75.8684L50.6794 75.8755C50.0616 76.3083 49.5381 76.8263 49.0745 77.2851L49.0435 77.3157C48.5548 77.7992 48.1316 78.2133 47.6582 78.5349L47.6582 78.5348L47.6495 78.5408C46.0328 79.67 44.1801 79.8575 42.8764 78.6332L42.8586 78.6165L42.8399 78.6009C41.5344 77.5142 39.7784 77.6071 38.4646 78.0771L38.4577 78.0796L38.4507 78.0822C37.8873 78.2954 37.3575 78.587 36.8664 78.88C36.6428 79.0133 36.4402 79.1387 36.2435 79.2603C35.9776 79.4248 35.7227 79.5824 35.4421 79.7438C34.51 80.2799 33.6987 80.6051 32.8402 80.5248L32.8221 80.5231L32.8041 80.5222C32.1664 80.4911 31.7268 80.2205 31.5166 79.7929L31.5049 79.7689L31.4915 79.7458C31.4262 79.6322 31.3654 79.5015 31.2948 79.3398C31.2802 79.3063 31.2647 79.2704 31.2485 79.2329C31.1927 79.1034 31.1284 78.954 31.0608 78.8141C30.8849 78.4495 30.6209 77.9987 30.1392 77.6777C29.2526 77.0429 28.2456 77.0075 27.3719 77.15C26.6097 77.2742 25.8456 77.5532 25.2346 77.7763C25.1547 77.8055 25.0774 77.8337 25.003 77.8605L24.9878 77.866L24.9727 77.8722C24.3821 78.1122 23.7363 78.2675 23.1828 78.245C22.6523 78.2234 22.2777 78.0481 22.034 77.6913C21.9578 77.5731 21.9051 77.3999 21.8869 77.1174C21.8728 76.8976 21.8809 76.6808 21.8906 76.4208C21.8943 76.3198 21.8984 76.2123 21.9014 76.0955C21.9201 75.3792 21.9115 74.2497 20.8947 73.536C19.969 72.8441 18.8586 72.9212 18.0557 73.0036C17.9258 73.0169 17.8037 73.0307 17.6871 73.0438C17.3995 73.0761 17.1449 73.1047 16.887 73.1148C16.5374 73.1284 16.2771 73.1007 16.074 73.0272C15.6769 72.8834 15.458 72.5958 15.4352 72.1867L15.4345 72.1733L15.4333 72.16C15.414 71.9424 15.4703 71.6529 15.6142 71.2432C15.684 71.0447 15.7656 70.8407 15.8554 70.6164L15.8571 70.6123C15.944 70.3952 16.0387 70.1586 16.1221 69.9208C16.286 69.4533 16.4409 68.8895 16.3951 68.3077C16.3457 67.6812 16.0693 67.0966 15.4977 66.6154L15.488 66.6072L15.478 66.5994C14.9423 66.1762 14.2305 66.0471 13.7586 65.9616C13.7165 65.9539 13.6762 65.9467 13.6382 65.9395C13.0774 65.8344 12.8153 65.7497 12.6707 65.6174C12.4336 65.3138 12.3822 65.0578 12.4019 64.8167C12.4252 64.5308 12.5561 64.1942 12.8036 63.7803C13.0019 63.4486 13.2384 63.1243 13.4962 62.7706C13.5626 62.6795 13.6304 62.5866 13.6993 62.491C14.0156 62.0525 14.3623 61.5507 14.5768 61.0313L14.5797 61.0243L14.5825 61.0172C14.909 60.1826 14.9595 59.4597 14.6942 58.8258C14.4441 58.2283 13.9659 57.8594 13.6447 57.6187C13.6077 57.591 13.5725 57.5647 13.5389 57.5397C13.2277 57.3074 13.0583 57.1809 12.9454 57.0153C12.8713 56.9066 12.7869 56.7307 12.8907 56.3038L12.8908 56.3038L12.8939 56.2901C13.0989 55.3784 13.8334 54.7175 14.8338 53.8172L14.8938 53.7632C15.8265 52.9236 17.0146 51.8364 17.1478 50.1615L17.1493 50.1434L17.1499 50.1252C17.1662 49.6549 17.0419 49.2591 16.9132 48.9438C16.8576 48.8075 16.7957 48.6739 16.7428 48.5596C16.7361 48.5451 16.7295 48.5309 16.723 48.517C16.6684 48.3987 16.6231 48.2984 16.5851 48.2016C16.399 47.5285 16.6445 46.8882 17.2646 46.2162C17.901 45.5265 18.8162 44.9406 19.6256 44.4716L19.6356 44.4658L19.6455 44.4597C20.3374 44.0319 21.1209 43.4617 21.7315 42.7488C22.3444 42.033 22.8298 41.116 22.7943 40.0232L22.7935 39.9995L22.7913 39.9758C22.6742 38.6909 23.5279 37.5331 24.7992 36.7892L24.8104 36.7826L24.8214 36.7757C25.2128 36.5295 25.6565 36.3401 26.1643 36.1404C26.2449 36.1087 26.3277 36.0765 26.4123 36.0437C26.8388 35.878 27.3088 35.6955 27.7529 35.4723L27.7548 35.4713C29.2306 34.7246 30.555 33.4511 31.081 31.7709C31.4451 30.6078 32.401 29.6393 33.5361 29.0924L33.5503 29.0856L33.5642 29.0782C34.2243 28.7279 35.01 28.588 35.9108 28.4342C37.8396 28.1522 39.6683 27.0399 40.7608 25.4112L40.7667 25.4024L40.7724 25.3933C41.717 23.9018 43.1611 22.7749 44.8004 22.583C45.1658 22.5402 45.5222 22.5719 45.9745 22.6158L46.0033 22.6185C46.4255 22.6595 46.9373 22.7091 47.486 22.646C48.8233 22.5155 49.8822 21.8791 50.7813 21.19C51.1529 20.9052 51.5147 20.597 51.8573 20.3053C51.927 20.246 51.9959 20.1873 52.064 20.1296C52.4698 19.7856 52.8533 19.4697 53.2462 19.1991C54.2927 18.5626 55.5144 18.2163 56.4293 18.512C57.4417 19.0924 58.4008 19.276 59.3235 19.1814C60.2438 19.0871 61.0681 18.7213 61.8034 18.324C62.1322 18.1462 62.4586 17.9534 62.7711 17.7687C62.8087 17.7465 62.8461 17.7244 62.8833 17.7024C63.2356 17.4945 63.573 17.2979 63.9134 17.1223C64.5942 16.771 65.2398 16.5293 65.914 16.4791L65.914 16.4792L65.9217 16.4785C66.4959 16.4304 66.7855 16.5369 66.9662 16.6468C67.1644 16.7673 67.3028 16.9259 67.5393 17.1971C67.5673 17.2292 67.5967 17.2629 67.6278 17.2984C67.8969 17.6054 68.2727 18.0113 68.8743 18.2548C69.4784 18.4993 70.2053 18.5415 71.1313 18.3674L71.1389 18.3659C71.643 18.2661 72.1348 18.0982 72.5926 17.9257C72.7965 17.8489 72.9831 17.7756 73.1642 17.7044C73.4184 17.6044 73.6618 17.5088 73.9272 17.4137C74.8011 17.1006 75.5255 16.948 76.2047 17.1118L76.2126 17.1136C76.4746 17.1741 76.6574 17.2617 76.7726 17.3552C76.8726 17.4364 76.9356 17.5313 76.963 17.6735C76.973 17.7311 76.9833 17.7951 76.9945 17.8638C77.0503 18.2095 77.126 18.6778 77.2846 19.0832C77.4952 19.6216 77.8854 20.1582 78.6183 20.4177C79.6282 20.8439 80.7008 20.6903 81.5507 20.5388C81.6904 20.5139 81.8244 20.4891 81.9535 20.4652C82.699 20.3274 83.2763 20.2207 83.8042 20.2979C84.24 20.3771 84.4804 20.4918 84.6103 20.5889C84.7238 20.6739 84.7778 20.7625 84.8085 20.8797C84.8448 21.0189 84.8531 21.2249 84.806 21.5292C84.7593 21.831 84.6667 22.1788 84.5421 22.5853L84.5348 22.6089L84.529 22.6329C84.2992 23.5859 84.6102 24.4262 85.1978 25.0065C85.7586 25.5602 86.549 25.8634 87.3358 25.8951C87.3868 25.8987 87.4378 25.9021 87.4886 25.9056C88.2464 25.957 88.9788 26.0067 89.5323 26.2175C89.8107 26.3235 89.9684 26.445 90.0545 26.5634C90.1288 26.6657 90.2033 26.8378 90.1737 27.1709C90.1455 27.4029 90.027 27.6893 89.8043 28.0743C89.6998 28.255 89.5842 28.4381 89.458 28.638L89.4402 28.6662C89.3106 28.8716 89.1703 29.0946 89.0413 29.322C88.7889 29.7671 88.5329 30.307 88.474 30.9028C88.411 31.5399 88.579 32.1779 89.0564 32.7735ZM33.9349 46.6876L33.9396 46.6794L33.9442 46.6712C34.4344 45.7788 34.4819 44.7886 33.8597 44.067C33.2741 43.3878 32.3215 43.2216 31.4145 43.4115C30.4876 43.5808 29.3931 44.1368 28.6008 44.9024C27.8126 45.6641 27.1385 46.8366 27.6128 48.1583L27.6403 48.235L27.6824 48.3047C28.1759 49.1205 28.9997 49.3517 29.7062 49.3398C30.3944 49.3283 31.0816 49.0956 31.5909 48.8473L31.6034 48.8413L31.6157 48.8347C32.5096 48.3603 33.3699 47.6615 33.9349 46.6876ZM42.2403 61.725L42.228 61.7248L42.2156 61.725C41.1049 61.7408 39.9682 62.1722 39.0726 62.8581C38.1768 63.5441 37.4505 64.5427 37.29 65.7427L37.2865 65.7685L37.2847 65.7945C37.2414 66.4225 37.4131 66.9775 37.7871 67.4044C38.1461 67.8142 38.628 68.0339 39.0876 68.1396C39.977 68.3442 41.0218 68.1798 41.7605 67.7972C42.7993 67.3067 43.7702 66.5418 44.3318 65.4433C44.7651 64.6402 44.8121 63.7293 44.4178 62.979C44.0132 62.209 43.2125 61.7407 42.2403 61.725ZM62.5387 29.0345L62.5401 29.0319C62.8191 28.5241 62.9286 27.9118 62.771 27.335C62.6057 26.7299 62.1615 26.2314 61.4869 26.0053L61.475 26.0013L61.4629 25.9976C60.4938 25.7058 59.4797 25.876 58.6199 26.2508C57.7607 26.6254 56.9811 27.2347 56.4455 27.943C55.8633 28.6852 55.5986 29.6292 55.9707 30.4601C56.3627 31.3351 57.2894 31.7211 58.3204 31.6599L58.33 31.6593L58.3397 31.6585C59.9742 31.5222 61.6917 30.5625 62.5387 29.0345ZM68.3793 45.5913L68.3738 45.6026L68.3687 45.614C68.0878 46.2387 68.0047 46.8625 68.176 47.4365C68.3485 48.0143 68.7448 48.4278 69.2024 48.689C70.074 49.1866 71.2601 49.2008 72.2267 48.8344C73.4782 48.4233 74.7899 47.5728 75.3991 46.2099C75.837 45.315 75.7563 44.3843 75.1986 43.6919C74.6657 43.0302 73.7999 42.7125 72.8974 42.7549C71.0728 42.8056 69.2041 43.8987 68.3793 45.5913ZM45.2068 31.4513L45.1775 31.4372L45.1472 31.4254C44.5092 31.1776 43.7825 31.2226 43.1375 31.3868C42.4776 31.5549 41.8107 31.8702 41.2373 32.2773C40.6683 32.6812 40.1456 33.2083 39.8283 33.8274C39.5028 34.4626 39.3843 35.2244 39.7116 35.9882L39.7553 36.0902L39.8247 36.1768C40.483 36.9979 41.4243 37.1322 42.2081 37.0255C42.9713 36.9217 43.71 36.583 44.2453 36.2614C44.931 35.8836 45.7149 35.1249 46.1133 34.2962C46.3169 33.8728 46.4642 33.3378 46.3404 32.7853C46.2072 32.1911 45.7979 31.737 45.2068 31.4513ZM51.9645 48.4199L51.9808 48.4102L51.9966 48.3998C52.9407 47.7802 53.5866 47.0628 53.9093 46.3155C54.235 45.5614 54.234 44.7494 53.8124 44.091C53.3926 43.4353 52.6577 43.091 51.8421 43.057C51.0307 43.0231 50.109 43.2868 49.1541 43.8577L49.1448 43.8632L49.1357 43.869C48.1773 44.4773 47.519 45.1891 47.1874 45.936C46.8525 46.6904 46.8495 47.5063 47.2714 48.1694C47.6908 48.8285 48.4286 49.1772 49.2493 49.215C50.0666 49.2526 50.9975 48.9918 51.9645 48.4199ZM32.9451 57.1553L32.9116 57.08L32.8638 57.013C32.4053 56.3709 31.7631 56.0508 31.0832 55.9774C30.4311 55.9069 29.7684 56.0629 29.1841 56.3086C28.04 56.7898 26.9217 57.7352 26.4333 58.695C26.0645 59.4132 25.9194 60.1345 26.1378 60.7846C26.3637 61.457 26.9068 61.8464 27.464 62.0301C28.5212 62.3787 29.9224 62.1118 30.9222 61.4287C31.4984 61.0495 32.17 60.4869 32.6251 59.796C33.0881 59.093 33.387 58.1488 32.9451 57.1553ZM74.782 31.1448L74.7348 31.0728L74.6735 31.0122C73.7445 30.0949 72.5036 30.0721 71.4879 30.3498C70.4707 30.6279 69.5029 31.2426 68.8634 31.8969L68.8437 31.9172L68.8253 31.9387C68.1803 32.6981 67.8004 33.4712 67.8353 34.2212C67.8734 35.0411 68.3896 35.5987 69.0064 35.8886C69.5972 36.1663 70.316 36.2286 71.0045 36.1393C71.7001 36.0491 72.4309 35.7966 73.0747 35.3686C73.6478 35.0052 74.3038 34.4358 74.7207 33.7491C75.147 33.0468 75.3927 32.0748 74.782 31.1448ZM60.5992 62.0328L60.6146 62.0237L60.6296 62.014C62.5831 60.7454 63.4174 58.8577 62.4905 57.4141C61.5761 55.99 59.5096 55.9003 57.5131 57.0754L57.4977 57.0844L57.4827 57.0942C55.5292 58.3628 54.6949 60.2505 55.6218 61.6941C56.5362 63.1182 58.6027 63.2079 60.5992 62.0328Z" stroke="url(#paint2_linear_985:5105)" stroke-width="1.62581"/>
</g>
<g filter="url(#filter2_d_985:5105)">
<ellipse rx="45.2097" ry="32.6538" transform="matrix(0.846324 -0.532669 0.534682 0.845054 50.3247 45.4205)" fill="url(#paint3_radial_985:5105)"/>
</g>
<g filter="url(#filter3_d_985:5105)">
<g filter="url(#filter4_i_985:5105)">
<path d="M36.5897 73.5718C36.5897 73.5718 38.9628 75.6987 41.8457 75.3607C44.7286 75.0228 46.2895 73.4723 46.2895 73.4723C46.2895 73.4723 49.0172 70.2289 50.7162 70.6428C52.4152 71.0567 54.6997 71.6378 57.27 70.2519C59.8814 68.814 60.8372 66.5328 60.8372 66.5328C60.8372 66.5328 62.1431 64.0219 64.3205 64.0968C66.498 64.1717 69.1343 63.3439 70.3562 62.1161C71.5781 60.8883 72.4965 59.8847 72.8154 58.1968C73.1343 56.509 73.9102 55.0976 76.3881 54.5242C78.866 53.9509 81.1899 52.0752 81.8722 49.8731C82.5546 47.6711 82.058 45.4658 82.058 45.4658C82.058 45.4658 82.7029 44.5414 83.3784 44.2736C84.1003 44.0004 87.8406 41.3456 88.0604 38.8205C88.2803 36.2955 87.2006 33.5455 87.2006 33.5455C87.2006 33.5455 93.2188 29.822 87.8764 21.7243C87.8764 21.7243 89.6494 14.3958 82.2724 11.0164C82.2724 11.0164 80.317 3.6534 73.2663 5.42296C73.2663 5.42296 70.404 -0.0417982 64.5548 2.71868C63.4419 3.27354 62.5529 3.33059 62.5529 3.33059C62.5529 3.33059 61.1978 1.83894 59.6494 1.50171C58.1009 1.16449 57.1874 1.41303 55.872 1.85016C54.5565 2.28728 52.3012 4.34358 50.9442 4.03107C50.0387 3.94858 50.1667 3.03761 46.7203 3.39441C46.0338 3.56918 43.8624 4.34242 42.2716 6.0379C40.6807 7.73337 39.5617 7.44012 39.5617 7.44012C39.5617 7.44012 37.0423 7.26387 36.1288 7.51241C35.2153 7.76094 32.9919 8.49312 31.0682 11.3594C30.0598 12.798 28.4488 13.1282 28.4488 13.1282C28.4488 13.1282 24.2309 13.3397 22.0857 16.3262C20.2298 18.5715 22.1418 18.3945 18.858 20.5242C16.7306 21.6695 15.7181 21.0809 13.2449 24.4831C12.152 26.4031 13.561 26.7567 12.1451 28.3374C10.7293 29.918 9.72527 29.7999 8.50338 31.0277C7.28148 32.2556 4.79698 31.1792 6.75732 37.7872C6.75732 37.7872 5.95942 39.0124 4.35453 40.1908C2.74964 41.3692 2.43982 44.3293 2.72486 45.1447C2.96341 45.9655 2.83244 46.4524 3.98252 48.2039C3.98252 48.2039 -0.815098 52.6802 5.19062 58.814C5.19062 58.814 4.69508 66.1813 12.498 68.3791C12.498 68.3791 16.4864 76.5884 23.3935 72.8079C23.3935 72.8079 25.9407 77.6023 31.6785 75.8923C34.8699 74.5751 34.9158 73.768 36.5897 73.5718Z" fill="url(#paint4_radial_985:5105)"/>
<path d="M36.5897 73.5718C36.5897 73.5718 38.9628 75.6987 41.8457 75.3607C44.7286 75.0228 46.2895 73.4723 46.2895 73.4723C46.2895 73.4723 49.0172 70.2289 50.7162 70.6428C52.4152 71.0567 54.6997 71.6378 57.27 70.2519C59.8814 68.814 60.8372 66.5328 60.8372 66.5328C60.8372 66.5328 62.1431 64.0219 64.3205 64.0968C66.498 64.1717 69.1343 63.3439 70.3562 62.1161C71.5781 60.8883 72.4965 59.8847 72.8154 58.1968C73.1343 56.509 73.9102 55.0976 76.3881 54.5242C78.866 53.9509 81.1899 52.0752 81.8722 49.8731C82.5546 47.6711 82.058 45.4658 82.058 45.4658C82.058 45.4658 82.7029 44.5414 83.3784 44.2736C84.1003 44.0004 87.8406 41.3456 88.0604 38.8205C88.2803 36.2955 87.2006 33.5455 87.2006 33.5455C87.2006 33.5455 93.2188 29.822 87.8764 21.7243C87.8764 21.7243 89.6494 14.3958 82.2724 11.0164C82.2724 11.0164 80.317 3.6534 73.2663 5.42296C73.2663 5.42296 70.404 -0.0417982 64.5548 2.71868C63.4419 3.27354 62.5529 3.33059 62.5529 3.33059C62.5529 3.33059 61.1978 1.83894 59.6494 1.50171C58.1009 1.16449 57.1874 1.41303 55.872 1.85016C54.5565 2.28728 52.3012 4.34358 50.9442 4.03107C50.0387 3.94858 50.1667 3.03761 46.7203 3.39441C46.0338 3.56918 43.8624 4.34242 42.2716 6.0379C40.6807 7.73337 39.5617 7.44012 39.5617 7.44012C39.5617 7.44012 37.0423 7.26387 36.1288 7.51241C35.2153 7.76094 32.9919 8.49312 31.0682 11.3594C30.0598 12.798 28.4488 13.1282 28.4488 13.1282C28.4488 13.1282 24.2309 13.3397 22.0857 16.3262C20.2298 18.5715 22.1418 18.3945 18.858 20.5242C16.7306 21.6695 15.7181 21.0809 13.2449 24.4831C12.152 26.4031 13.561 26.7567 12.1451 28.3374C10.7293 29.918 9.72527 29.7999 8.50338 31.0277C7.28148 32.2556 4.79698 31.1792 6.75732 37.7872C6.75732 37.7872 5.95942 39.0124 4.35453 40.1908C2.74964 41.3692 2.43982 44.3293 2.72486 45.1447C2.96341 45.9655 2.83244 46.4524 3.98252 48.2039C3.98252 48.2039 -0.815098 52.6802 5.19062 58.814C5.19062 58.814 4.69508 66.1813 12.498 68.3791C12.498 68.3791 16.4864 76.5884 23.3935 72.8079C23.3935 72.8079 25.9407 77.6023 31.6785 75.8923C34.8699 74.5751 34.9158 73.768 36.5897 73.5718Z" fill="url(#paint5_linear_985:5105)" fill-opacity="0.5"/>
</g>
<g filter="url(#filter5_d_985:5105)">
<path d="M78.9296 11.1281C80.4504 11.2331 82.7206 11.2976 82.5337 13.3006C82.3492 14.926 79.859 16.5854 81.2418 18.3104C82.211 19.329 84.4702 19.3005 84.3597 21.153C84.3595 23.9361 79.0657 25.4047 81.0323 28.4765C81.5279 29.0789 82.2095 29.6595 82.2622 30.5024C82.3063 30.8746 82.2164 31.3096 82.0281 31.7091C80.901 34.5297 76.6482 34.8387 75.9317 37.9415C75.6456 39.107 76.3823 40.1529 76.0962 41.3185C75.7036 42.7795 74.4246 43.9198 73.0905 44.5948C71.9723 45.103 70.7336 45.3895 69.6264 45.9908C68.3853 46.6549 67.2922 47.7734 66.8887 49.1414C66.6515 49.9239 66.5592 50.7366 66.177 51.4889C65.366 52.9989 63.797 54.0788 62.0989 54.4662C60.1573 54.7878 58.0265 54.7069 56.4441 56.0714C55.1841 56.9736 54.6056 58.4564 53.7095 59.6462C52.1468 61.5744 49.5164 62.4483 47.158 61.6393C45.6451 61.2032 44.01 61.7248 42.6979 62.5859C41.5663 63.3787 40.7577 64.5111 39.6671 65.2519C37.8822 66.4986 35.5686 66.8637 33.8714 65.2698C32.8778 64.4427 31.4665 64.4664 30.2908 64.887C28.3058 65.6382 26.5571 67.5881 24.3168 67.3786C23.4635 67.337 22.7109 66.9533 22.3383 66.1951C21.9821 65.5764 21.8419 64.7909 21.2289 64.3909C19.9398 63.4569 18.1873 64.1809 16.8311 64.6698C15.5269 65.1998 13.7657 65.453 12.9085 64.1854C12.1608 63.0465 13.2531 61.1262 11.9695 60.2387C10.6749 59.2581 8.72847 60.335 7.34952 59.836C6.66004 59.5865 6.21644 59.0252 6.17473 58.2753C6.0338 56.688 8.14892 54.648 6.52575 53.2814C5.74568 52.6651 4.31545 52.9268 3.61734 52.2067C2.07301 50.3119 4.68061 48.4501 5.37653 46.7649C6.49805 43.8977 3.04974 44.6315 3.65194 42.1553C4.20765 39.6846 7.68041 38.7593 7.88862 36.1406C7.90994 35.5249 7.57035 35.0457 7.36472 34.5038C6.7337 32.3606 9.1364 30.7586 10.7684 29.8129C12.086 28.9983 13.5864 27.7378 13.5329 26.0931C13.3755 24.3662 14.5284 22.9577 15.939 22.1322C16.8602 21.5527 17.9595 21.2826 18.9382 20.7907C20.2723 20.1156 21.4118 18.9917 21.8563 17.5717C22.3009 16.1518 23.4404 15.0278 24.7335 14.4048C25.5318 13.9812 26.4561 13.8258 27.334 13.6759C29.0487 13.4281 30.6751 12.4358 31.6366 11.0025C32.669 9.37226 34.3034 8.04889 36.256 7.82036C37.1859 7.71154 38.0203 7.99124 38.9502 7.88242C41.1873 7.66777 42.6106 5.7559 44.3545 4.56123C45.4971 3.86145 47.0393 3.35078 48.3197 3.81414C51.9183 5.94017 54.0864 1.95998 57.4039 1.71324C60.2509 1.47438 59.2113 4.23758 62.5312 3.61319C64.2814 3.26685 66.1017 1.92172 67.9456 2.36631C68.624 2.52275 69.1851 2.88163 69.3142 3.57406C69.46 4.40607 69.5292 5.38854 70.4622 5.70389C72.0027 6.37266 73.9026 5.30124 75.4865 5.54041C77.5573 5.91127 77.3807 7.20554 76.8707 8.86901C76.5546 10.1796 77.6987 11.0834 78.9296 11.1281ZM24.7827 32.3237C25.5582 30.9122 24.5945 29.9401 23.1233 30.2538C21.6001 30.5264 19.2959 32.164 19.9293 33.9295C20.5155 34.8986 21.8937 34.5958 22.785 34.1613C23.5833 33.7377 24.313 33.1334 24.7827 32.3237ZM35.1632 51.1091C35.8212 49.9 35.1964 48.6052 33.7796 48.5823C31.9444 48.6084 29.8971 50.0273 29.6471 51.8961C29.5257 53.6557 31.7959 53.7202 32.9495 53.1134C33.8873 52.6735 34.7045 52.0118 35.1632 51.1091ZM53.3786 14.6844C53.7664 13.9787 53.6152 13.1001 52.7807 12.8204C51.3143 12.3789 49.5373 13.2944 48.6412 14.4842C47.6987 15.6794 48.184 16.9905 49.8223 16.8931C51.2225 16.7764 52.6796 15.9455 53.3786 14.6844ZM66.2138 31.9089C66.8609 30.6067 65.8862 29.5416 64.4804 29.6117C62.9296 29.6517 61.3441 30.592 60.6616 31.9926C59.7663 33.9842 61.9277 34.7219 63.5053 34.1127C64.6401 33.744 65.7307 33.0032 66.2138 31.9089ZM35.3906 21.601C36.4978 20.9998 38.055 19.025 36.405 18.2276C34.7251 17.5751 31.1632 19.7373 32.0101 21.7136C32.8398 22.7486 34.4229 22.186 35.3906 21.601ZM43.1011 33.7648C46.5124 31.5259 44.5569 28.5472 41.1234 30.6C37.66 32.7978 39.6211 35.823 43.1011 33.7648ZM22.0197 46.7982C23.0694 46.1093 24.3318 44.8295 23.7536 43.5292C22.5102 41.7879 19.4732 43.6056 18.7087 45.1102C17.4446 47.5695 20.3633 47.9355 22.0197 46.7982ZM64.1824 20.7314C65.1911 20.0945 66.4015 18.7736 65.6538 17.6347C64.3726 16.3695 62.0897 17.3914 60.9967 18.5099C58.6388 21.2859 62.0421 22.1612 64.1824 20.7314ZM51.7373 47.3769C55.3701 45.0177 53.1789 41.6421 49.4776 43.8205C45.8448 46.1797 48.0359 49.5554 51.7373 47.3769Z" fill="#F9FAFC"/>
<path d="M80.6077 18.8181L80.6293 18.845L80.6531 18.8701C80.9981 19.2327 81.428 19.4732 81.7967 19.6536C81.9554 19.7313 82.1191 19.8054 82.2694 19.8733C82.2961 19.8854 82.3225 19.8973 82.3483 19.909C82.5253 19.9893 82.6834 20.0626 82.8293 20.1389C83.1286 20.2955 83.3077 20.4315 83.4121 20.5667C83.4963 20.6757 83.5647 20.8248 83.5481 21.1036L83.5467 21.1277L83.5467 21.1519C83.5466 21.5771 83.3471 22.0118 82.93 22.5287C82.6307 22.8996 82.2857 23.2384 81.9065 23.6107C81.7367 23.7775 81.56 23.951 81.3774 24.1372C80.8348 24.6905 80.2418 25.3581 79.9571 26.1526C79.6466 27.0188 79.7296 27.9485 80.3477 28.914L80.3738 28.9548L80.4046 28.9923C80.5108 29.1213 80.6273 29.2524 80.7322 29.3704C80.7614 29.4034 80.7898 29.4353 80.8168 29.4659C80.9482 29.6148 81.0612 29.7475 81.1578 29.8792C81.3499 30.1411 81.438 30.3478 81.4507 30.552L81.4522 30.5745L81.4548 30.5969C81.4768 30.7825 81.4331 31.0637 81.2926 31.3616L81.2821 31.3838L81.273 31.4067C80.8424 32.4844 79.8319 33.1224 78.5246 33.9478C78.4803 33.9757 78.4357 34.0039 78.3908 34.0323C77.1276 34.8307 75.5848 35.8395 75.1407 37.7525C74.9558 38.5121 75.1003 39.2187 75.2069 39.7404L75.2173 39.7911C75.3343 40.3653 75.3986 40.7396 75.3085 41.1156C74.9983 42.255 73.9581 43.2406 72.7377 43.8618C72.3045 44.0577 71.8531 44.2178 71.3619 44.3921C71.2692 44.425 71.1751 44.4584 71.0794 44.4926C70.4888 44.7039 69.8523 44.9429 69.2404 45.2749C67.8617 46.0131 66.5901 47.2823 66.1096 48.9078C66.024 49.1907 65.9506 49.4982 65.8846 49.7745C65.8548 49.8995 65.8265 50.0181 65.7992 50.1251C65.7047 50.4967 65.6045 50.8176 65.456 51.112C64.7734 52.3762 63.4306 53.3218 61.9403 53.6684C61.5422 53.7335 61.1352 53.7814 60.7054 53.832C60.6447 53.8392 60.5835 53.8464 60.5219 53.8537C60.024 53.9127 59.4991 53.9783 58.9795 54.0801C57.9464 54.2824 56.8744 54.6376 55.9403 55.4319C55.2041 55.9673 54.6869 56.6532 54.26 57.305C54.087 57.569 53.9362 57.8139 53.7928 58.0468C53.5538 58.4346 53.3353 58.7895 53.0686 59.1451C51.6996 60.825 49.4232 61.5574 47.4209 60.8706L47.4018 60.864L47.3823 60.8584C45.5517 60.3307 43.667 60.977 42.2511 61.9063L42.2408 61.913L42.2307 61.9201C41.6129 62.3529 41.0894 62.8709 40.6258 63.3297L40.5948 63.3603C40.1061 63.8438 39.6829 64.2579 39.2095 64.5795L39.2095 64.5794L39.2008 64.5854C37.5841 65.7146 35.7314 65.9022 34.4276 64.6778L34.4099 64.6611L34.3912 64.6456C33.0857 63.5588 31.3297 63.6517 30.0159 64.1217L30.0089 64.1242L30.002 64.1268C29.4386 64.34 28.9088 64.6316 28.4177 64.9246C28.1941 65.0579 27.9914 65.1833 27.7948 65.3049C27.5289 65.4694 27.2739 65.6271 26.9933 65.7884C26.0612 66.3245 25.25 66.6497 24.3915 66.5694L24.3734 66.5677L24.3553 66.5668C23.7177 66.5357 23.278 66.2651 23.0679 65.8375L23.0561 65.8136L23.0428 65.7904C22.9774 65.6768 22.9167 65.5461 22.8461 65.3844C22.8315 65.3508 22.816 65.3149 22.7998 65.2773C22.744 65.1479 22.6796 64.9986 22.6121 64.8587C22.4362 64.4941 22.1722 64.0433 21.6905 63.7223C20.8038 63.0876 19.7969 63.0521 18.9232 63.1946C18.161 63.3188 17.3969 63.5978 16.7859 63.821C16.7059 63.8501 16.6287 63.8784 16.5543 63.9051L16.5391 63.9107L16.524 63.9168C15.9334 64.1568 15.2876 64.3121 14.7341 64.2896C14.2036 64.268 13.829 64.0928 13.5853 63.7359C13.5091 63.6177 13.4564 63.4445 13.4382 63.162C13.424 62.9422 13.4321 62.7254 13.4419 62.4655C13.4456 62.3644 13.4497 62.2569 13.4527 62.1401C13.4714 61.4238 13.4628 60.2943 12.446 59.5806C11.5203 58.8887 10.4099 58.9658 9.60696 59.0482C9.47707 59.0616 9.35503 59.0753 9.23842 59.0884C8.95076 59.1207 8.69615 59.1493 8.43827 59.1594C8.08872 59.173 7.82837 59.1453 7.62532 59.0718C7.22815 58.9281 7.00927 58.6404 6.98652 58.2313L6.98577 58.218L6.98459 58.2046C6.96527 57.987 7.02161 57.6975 7.16553 57.2878C7.23527 57.0893 7.3169 56.8853 7.40671 56.661L7.40841 56.6567C7.49533 56.4397 7.59002 56.2032 7.6734 55.9654C7.83731 55.4979 7.99222 54.9341 7.94638 54.3523C7.89702 53.7258 7.62056 53.1413 7.049 52.66L7.03928 52.6518L7.02931 52.644C6.49365 52.2208 5.78184 52.0917 5.3099 52.0062C5.26776 51.9986 5.22754 51.9913 5.18953 51.9841C4.62869 51.8791 4.36658 51.7943 4.22204 51.6621C3.98488 51.3585 3.93349 51.1024 3.95318 50.8613C3.97653 50.5754 4.10742 50.2388 4.35488 49.8249C4.55321 49.4932 4.78965 49.1689 5.04752 48.8152C5.11389 48.7242 5.18167 48.6312 5.2506 48.5356C5.56692 48.0971 5.91364 47.5953 6.12811 47.0759L6.13102 47.0689L6.13379 47.0618C6.46025 46.2272 6.51077 45.5043 6.24549 44.8704C5.99541 44.273 5.51723 43.904 5.19601 43.6634C5.15903 43.6356 5.1238 43.6094 5.09023 43.5843C4.77903 43.352 4.60963 43.2255 4.49668 43.0599C4.42257 42.9512 4.33816 42.7753 4.44198 42.3484L4.4421 42.3484L4.44519 42.3347C4.65024 41.423 5.38469 40.7621 6.38507 39.8618L6.44512 39.8078C7.37776 38.9682 8.56594 37.881 8.69911 36.2061L8.70055 36.188L8.70118 36.1698C8.71746 35.6995 8.59318 35.3037 8.46452 34.9884C8.40891 34.8521 8.34699 34.7185 8.29407 34.6042C8.28734 34.5897 8.28075 34.5755 8.27434 34.5616C8.21969 34.4433 8.17436 34.343 8.13637 34.2462C7.95031 33.5731 8.19582 32.9328 8.81591 32.2608C9.45231 31.5711 10.3675 30.9853 11.1769 30.5162L11.1869 30.5104L11.1967 30.5043C11.8887 30.0765 12.6722 29.5063 13.2828 28.7934C13.8957 28.0776 14.3811 27.1607 14.3456 26.0678L14.3448 26.0441L14.3426 26.0204C14.2255 24.7355 15.0792 23.5777 16.3505 22.8338L16.3617 22.8272L16.3727 22.8203C16.7641 22.5741 17.2078 22.3847 17.7156 22.185C17.7962 22.1533 17.879 22.1211 17.9635 22.0883C18.3901 21.9226 18.8601 21.7401 19.3042 21.5169L19.3061 21.5159C20.7819 20.7692 22.1063 19.4957 22.6323 17.8155C22.9964 16.6524 23.9523 15.6839 25.0874 15.1371L25.1016 15.1302L25.1155 15.1228C25.7756 14.7725 26.5613 14.6326 27.4621 14.4788C29.3909 14.1969 31.2196 13.0845 32.3121 11.4559L32.318 11.447L32.3237 11.4379C33.2683 9.94639 34.7124 8.81947 36.3517 8.62762C36.7171 8.58486 37.0735 8.61656 37.5258 8.66037L37.5546 8.66316C37.9768 8.70412 38.4886 8.75376 39.0373 8.69066C40.3746 8.56014 41.4335 7.92371 42.3326 7.23459C42.7041 6.94978 43.066 6.64168 43.4085 6.35C43.4782 6.29061 43.5472 6.2319 43.6153 6.17421C44.0211 5.83018 44.4046 5.51436 44.7975 5.24369C45.844 4.60726 47.0657 4.26091 47.9806 4.55664C48.993 5.137 49.9521 5.32061 50.8748 5.22602C51.7951 5.13168 52.6194 4.76594 53.3546 4.36858C53.6835 4.19086 54.0099 3.99798 54.3224 3.8133C54.36 3.79108 54.3974 3.76898 54.4346 3.74704C54.7869 3.53914 55.1243 3.34255 55.4647 3.16691C56.1455 2.81561 56.791 2.57391 57.4653 2.52376L57.4653 2.5238L57.473 2.52316C58.0472 2.47498 58.3368 2.58155 58.5175 2.6914C58.7157 2.81194 58.8541 2.97055 59.0906 3.24172C59.1186 3.27385 59.148 3.30756 59.1791 3.34297C59.4482 3.64998 59.824 4.05595 60.4256 4.29945C61.0297 4.54393 61.7566 4.58611 62.6826 4.41199L62.6901 4.41049C63.1943 4.31072 63.686 4.14282 64.1439 3.97034C64.3478 3.8935 64.5344 3.82017 64.7155 3.749C64.9697 3.64905 65.2131 3.55338 65.4785 3.45831C66.3524 3.14522 67.0768 2.99264 67.756 3.15644L67.7639 3.15826C68.0259 3.21868 68.2087 3.30632 68.3239 3.39982C68.4239 3.48106 68.4869 3.57588 68.5143 3.71816C68.5243 3.77576 68.5346 3.83968 68.5457 3.90844C68.6016 4.25414 68.6773 4.72237 68.8358 5.12777C69.0464 5.66623 69.4367 6.20279 70.1696 6.46234C71.1795 6.88848 72.2521 6.73495 73.1019 6.58339C73.2417 6.55848 73.3757 6.5337 73.5047 6.50985C74.2502 6.37206 74.8276 6.26534 75.3555 6.34248C75.7913 6.42175 76.0317 6.5364 76.1616 6.63355C76.2751 6.71849 76.3291 6.80709 76.3597 6.92432C76.3961 7.06353 76.4044 7.26956 76.3573 7.57386C76.3106 7.87564 76.2179 8.22343 76.0933 8.62987L76.0861 8.65347L76.0803 8.67747C75.8505 9.63052 76.1614 10.4708 76.7491 11.0511C77.3099 11.6049 78.1003 11.908 78.8871 11.9398C78.9381 11.9433 78.9891 11.9467 79.0399 11.9502C79.7977 12.0016 80.5301 12.0513 81.0835 12.2621C81.362 12.3681 81.5197 12.4896 81.6058 12.6081C81.6801 12.7103 81.7545 12.8824 81.725 13.2156C81.6968 13.4475 81.5783 13.7339 81.3556 14.1189C81.2509 14.2999 81.1352 14.4832 81.0088 14.6834L80.9915 14.7108C80.8618 14.9162 80.7216 15.1392 80.5926 15.3666C80.3402 15.8117 80.0842 16.3516 80.0253 16.9474C79.9623 17.5845 80.1302 18.2225 80.6077 18.8181ZM25.4862 32.7322L25.4909 32.724L25.4954 32.7158C25.9857 31.8234 26.0332 30.8332 25.411 30.1117C24.8254 29.4324 23.8728 29.2662 22.9658 29.4561C22.0389 29.6254 20.9444 30.1814 20.1521 30.9471C19.3639 31.7087 18.6898 32.8812 19.1641 34.203L19.1916 34.2796L19.2337 34.3493C19.7272 35.1651 20.551 35.3963 21.2575 35.3844C21.9457 35.3729 22.6329 35.1402 23.1422 34.892L23.1547 34.8859L23.167 34.8793C24.0609 34.4049 24.9212 33.7062 25.4862 32.7322ZM33.7916 47.7696L33.7793 47.7694L33.7669 47.7696C32.6562 47.7854 31.5195 48.2168 30.6239 48.9027C29.7281 49.5887 29.0018 50.5873 28.8413 51.7873L28.8378 51.8131L28.836 51.8391C28.7927 52.4671 28.9644 53.0221 29.3384 53.449C29.6974 53.8588 30.1793 54.0785 30.6389 54.1842C31.5283 54.3888 32.5731 54.2244 33.3118 53.8418C34.3506 53.3513 35.3214 52.5865 35.883 51.488C36.3163 50.6849 36.3634 49.774 35.9691 49.0236C35.5645 48.2536 34.7638 47.7853 33.7916 47.7696ZM54.0899 15.0792L54.0914 15.0765C54.3704 14.5687 54.4799 13.9565 54.3223 13.3796C54.157 12.7746 53.7128 12.276 53.0382 12.0499L53.0263 12.0459L53.0142 12.0422C52.045 11.7504 51.031 11.9206 50.1712 12.2955C49.3119 12.6701 48.5324 13.2793 47.9968 13.9877C47.4146 14.7298 47.1499 15.6739 47.522 16.5047C47.9139 17.3797 48.8407 17.7658 49.8717 17.7045L49.8813 17.7039L49.891 17.7031C51.5254 17.5669 53.2429 16.6071 54.0899 15.0792ZM59.9306 31.6359L59.9251 31.6472L59.9199 31.6586C59.6391 32.2833 59.556 32.9071 59.7273 33.4811C59.8998 34.0589 60.2961 34.4724 60.7537 34.7336C61.6252 35.2312 62.8114 35.2455 63.778 34.879C65.0294 34.4679 66.3411 33.6174 66.9503 32.2546C67.3883 31.3597 67.3076 30.4289 66.7499 29.7365C66.217 29.0748 65.3512 28.7571 64.4487 28.7995C62.6241 28.8502 60.7554 29.9433 59.9306 31.6359ZM36.7581 17.4959L36.7288 17.4818L36.6985 17.47C36.0605 17.2222 35.3338 17.2672 34.6887 17.4315C34.0289 17.5995 33.362 17.9149 32.7886 18.3219C32.2196 18.7258 31.6968 19.2529 31.3796 19.872C31.0541 20.5072 30.9355 21.269 31.2629 22.0328L31.3065 22.1348L31.376 22.2214C32.0343 23.0426 32.9756 23.1768 33.7594 23.0702C34.5226 22.9663 35.2612 22.6276 35.7966 22.306C36.4823 21.9282 37.2662 21.1695 37.6646 20.3408C37.8682 19.9174 38.0155 19.3824 37.8917 18.8299C37.7585 18.2357 37.3492 17.7816 36.7581 17.4959ZM43.5158 34.4645L43.5321 34.4548L43.5479 34.4444C44.492 33.8248 45.1378 33.1074 45.4606 32.3602C45.7863 31.6061 45.7852 30.794 45.3637 30.1356C44.9439 29.4799 44.2089 29.1356 43.3934 29.1016C42.582 29.0677 41.6603 29.3314 40.7054 29.9023L40.6961 29.9079L40.687 29.9136C39.7285 30.5219 39.0703 31.2337 38.7387 31.9806C38.4038 32.7351 38.4007 33.5509 38.8227 34.214C39.2421 34.8731 39.9799 35.2218 40.8006 35.2596C41.6179 35.2972 42.5488 35.0364 43.5158 34.4645ZM24.4964 43.1999L24.4629 43.1246L24.4151 43.0576C23.9566 42.4155 23.3144 42.0955 22.6345 42.022C21.9824 41.9515 21.3197 42.1075 20.7354 42.3533C19.5913 42.8344 18.473 43.7798 17.9846 44.7396C17.6158 45.4578 17.4707 46.1791 17.6891 46.8292C17.915 47.5016 18.4581 47.891 19.0153 48.0747C20.0724 48.4233 21.4737 48.1564 22.4734 47.4733C23.0497 47.0942 23.7213 46.5315 24.1764 45.8406C24.6394 45.1377 24.9383 44.1934 24.4964 43.1999ZM66.3333 17.1894L66.286 17.1174L66.2248 17.0568C65.2958 16.1395 64.0549 16.1168 63.0392 16.3944C62.022 16.6725 61.0542 17.2872 60.4147 17.9415L60.3949 17.9618L60.3766 17.9833C59.7316 18.7427 59.3517 19.5158 59.3866 20.2658C59.4247 21.0857 59.9408 21.6434 60.5576 21.9333C61.1485 22.211 61.8672 22.2732 62.5558 22.1839C63.2514 22.0937 63.9822 21.8412 64.6261 21.4132C65.1991 21.0498 65.8551 20.4804 66.272 19.7937C66.6983 19.0914 66.9439 18.1194 66.3333 17.1894ZM52.1505 48.0774L52.1659 48.0684L52.1809 48.0586C54.1344 46.79 54.9687 44.9023 54.0418 43.4587C53.1274 42.0346 51.0609 41.9449 49.0644 43.12L49.049 43.1291L49.034 43.1388C47.0805 44.4074 46.2462 46.2951 47.1731 47.7387C48.0875 49.1628 50.154 49.2525 52.1505 48.0774Z" stroke="url(#paint6_linear_985:5105)" stroke-width="1.62581"/>
</g>
</g>
<g filter="url(#filter6_i_985:5105)">
<path d="M85.1333 158.288C85.1333 158.288 89.1444 161.883 94.0173 161.312C98.8901 160.741 101.528 158.12 101.528 158.12C101.528 158.12 106.139 152.638 109.011 153.338C111.883 154.037 115.744 155.019 120.088 152.677C124.502 150.247 126.118 146.391 126.118 146.391C126.118 146.391 128.325 142.147 132.006 142.273C135.686 142.4 140.142 141.001 142.208 138.925C144.273 136.85 145.825 135.153 146.364 132.301C146.903 129.448 148.215 127.062 152.403 126.093C156.591 125.124 160.519 121.953 161.673 118.231C162.826 114.509 161.987 110.782 161.987 110.782C161.987 110.782 163.077 109.219 164.218 108.767C165.439 108.305 171.761 103.818 172.132 99.5495C172.504 95.2815 170.679 90.6332 170.679 90.6332C170.679 90.6332 180.851 84.3397 171.821 70.6523C171.821 70.6523 174.818 58.2653 162.349 52.5532C162.349 52.5532 159.044 40.1077 147.126 43.0987C147.126 43.0987 142.288 33.8618 132.402 38.5278C130.521 39.4656 129.018 39.5621 129.018 39.5621C129.018 39.5621 126.728 37.0408 124.11 36.4708C121.493 35.9008 119.949 36.3209 117.725 37.0597C115.502 37.7986 111.69 41.2743 109.396 40.7461C107.866 40.6066 108.082 39.0669 102.257 39.6699C101.096 39.9654 97.426 41.2723 94.737 44.1381C92.0481 47.0039 90.1567 46.5083 90.1567 46.5083C90.1567 46.5083 85.8981 46.2104 84.3541 46.6305C82.8101 47.0506 79.052 48.2881 75.8003 53.1329C74.0958 55.5644 71.3729 56.1227 71.3729 56.1227C71.3729 56.1227 64.2436 56.4801 60.6175 61.5281C57.4807 65.3232 60.7124 65.0241 55.1619 68.6239C51.566 70.5598 49.8546 69.5648 45.6742 75.3154C43.827 78.5608 46.2085 79.1585 43.8153 81.8302C41.4221 84.5019 39.7251 84.3023 37.6598 86.3776C35.5945 88.453 31.395 86.6337 34.7085 97.8028C34.7085 97.8028 33.3598 99.8739 30.6471 101.866C27.9345 103.857 27.4108 108.861 27.8926 110.239C28.2958 111.626 28.0744 112.449 30.0183 115.41C30.0183 115.41 21.9091 122.976 32.0604 133.344C32.0604 133.344 31.2228 145.797 44.4118 149.511C44.4118 149.511 51.1533 163.387 62.8281 156.997C62.8281 156.997 67.1336 165.101 76.8319 162.211C82.2262 159.984 82.3038 158.62 85.1333 158.288Z" fill="url(#paint7_radial_985:5105)"/>
</g>
<g filter="url(#filter7_d_985:5105)">
<path d="M156.695 52.7419C159.266 52.9194 163.103 53.0284 162.787 56.4141C162.475 59.1614 158.266 61.9662 160.603 64.8819C162.241 66.6037 166.06 66.5554 165.873 69.6868C165.873 74.3909 156.925 76.8733 160.249 82.0653C161.087 83.0835 162.239 84.0649 162.328 85.4896C162.403 86.1188 162.251 86.8541 161.932 87.5292C160.027 92.2968 152.839 92.8192 151.628 98.0636C151.144 100.034 152.389 101.802 151.906 103.772C151.242 106.241 149.08 108.169 146.825 109.31C144.935 110.169 142.842 110.653 140.97 111.669C138.872 112.792 137.025 114.682 136.343 116.995C135.942 118.317 135.786 119.691 135.14 120.962C133.769 123.515 131.117 125.34 128.247 125.995C124.965 126.538 121.363 126.402 118.689 128.708C116.559 130.233 115.581 132.739 114.066 134.75C111.425 138.01 106.979 139.487 102.993 138.119C100.435 137.382 97.6716 138.264 95.4539 139.719C93.5411 141.059 92.1744 142.973 90.331 144.226C87.314 146.333 83.4035 146.95 80.5347 144.256C78.8553 142.858 76.4698 142.898 74.4825 143.609C71.1273 144.878 68.1716 148.174 64.3849 147.82C62.9425 147.75 61.6705 147.101 61.0406 145.82C60.4387 144.774 60.2017 143.446 59.1655 142.77C56.9866 141.191 54.0243 142.415 51.732 143.242C49.5277 144.137 46.5508 144.566 45.1018 142.423C43.838 140.498 45.6842 137.252 43.5146 135.752C41.3264 134.094 38.0364 135.915 35.7056 135.071C34.5402 134.649 33.7904 133.701 33.7199 132.433C33.4817 129.75 37.0568 126.302 34.3133 123.992C32.9947 122.951 30.5773 123.393 29.3973 122.176C26.7869 118.973 31.1945 115.826 32.3708 112.978C34.2664 108.131 28.4379 109.372 29.4558 105.186C30.3951 101.01 36.2649 99.446 36.6169 95.0197C36.6529 93.979 36.0789 93.1691 35.7313 92.253C34.6647 88.6305 38.7259 85.9228 41.4845 84.3242C43.7115 82.9474 46.2477 80.8168 46.1573 78.0368C45.8911 75.1179 47.8399 72.7371 50.2241 71.3419C51.7812 70.3623 53.6393 69.9057 55.2936 69.0742C57.5486 67.9333 59.4747 66.0335 60.226 63.6334C60.9774 61.2333 62.9035 59.3335 65.0893 58.2804C66.4385 57.5644 68.0009 57.3018 69.4847 57.0484C72.383 56.6295 75.1322 54.9523 76.7573 52.5297C78.5023 49.7741 81.2648 47.5372 84.5654 47.151C86.137 46.967 87.5475 47.4398 89.1192 47.2559C92.9005 46.893 95.3062 43.6615 98.2539 41.6422C100.185 40.4594 102.792 39.5962 104.956 40.3794C111.039 43.9729 114.703 37.2454 120.311 36.8283C125.123 36.4246 123.366 41.0951 128.977 40.0397C131.936 39.4543 135.012 37.1807 138.129 37.9322C139.276 38.1966 140.224 38.8032 140.443 39.9736C140.689 41.3799 140.806 43.0405 142.383 43.5736C144.987 44.704 148.198 42.893 150.875 43.2972C154.375 43.9241 154.077 46.1117 153.215 48.9235C152.681 51.1387 154.615 52.6664 156.695 52.7419ZM65.1723 88.5682C66.4831 86.1824 64.8543 84.5392 62.3676 85.0694C59.7929 85.5302 55.8982 88.2982 56.9689 91.2824C57.9597 92.9205 60.2892 92.4087 61.7957 91.6742C63.145 90.9582 64.3784 89.9368 65.1723 88.5682ZM82.7181 120.32C83.8304 118.277 82.7743 116.088 80.3796 116.049C77.2775 116.094 73.817 118.492 73.3946 121.651C73.1892 124.625 77.0265 124.734 78.9765 123.708C80.5615 122.965 81.9428 121.846 82.7181 120.32ZM113.507 58.7531C114.163 57.5602 113.907 56.0752 112.496 55.6024C110.018 54.856 107.014 56.4035 105.5 58.4146C103.907 60.4348 104.727 62.651 107.496 62.4864C109.863 62.2891 112.326 60.8846 113.507 58.7531ZM135.202 87.867C136.296 85.666 134.648 83.8656 132.272 83.9842C129.651 84.0518 126.971 85.6411 125.817 88.0086C124.304 91.3749 127.957 92.6217 130.624 91.592C132.542 90.9689 134.385 89.7166 135.202 87.867ZM83.1026 70.444C84.974 69.4276 87.6061 66.0898 84.8172 64.7419C81.9776 63.6391 75.9571 67.2937 77.3886 70.6343C78.791 72.3837 81.4669 71.4327 83.1026 70.444ZM96.1353 91.004C101.901 87.2197 98.596 82.1849 92.7925 85.6546C86.9385 89.3695 90.2533 94.483 96.1353 91.004ZM60.5022 113.034C62.2764 111.869 64.4103 109.706 63.4328 107.508C61.3313 104.565 56.1978 107.638 54.9057 110.181C52.769 114.338 57.7024 114.956 60.5022 113.034ZM131.768 68.9741C133.473 67.8976 135.519 65.6648 134.255 63.7398C132.09 61.6013 128.231 63.3286 126.384 65.2191C122.398 69.9113 128.151 71.3908 131.768 68.9741ZM110.733 114.012C116.873 110.024 113.17 104.319 106.913 108.001C100.773 111.988 104.477 117.694 110.733 114.012Z" fill="url(#paint8_radial_985:5105)"/>
<path d="M159.969 65.3896L159.991 65.4165L160.015 65.4416C160.527 65.98 161.18 66.3511 161.787 66.6486C162.047 66.7757 162.315 66.8968 162.569 67.0117C162.615 67.0324 162.66 67.0529 162.705 67.0732C163.005 67.2092 163.284 67.3386 163.546 67.4757C164.078 67.7537 164.465 68.0291 164.716 68.3532C164.946 68.6512 165.097 69.0388 165.062 69.6373L165.06 69.6614L165.06 69.6856C165.06 70.591 164.632 71.4493 163.894 72.3645C163.367 73.0176 162.748 73.6255 162.095 74.2669C161.813 74.5441 161.524 74.8276 161.234 75.1237C160.319 76.0564 159.397 77.1095 158.96 78.3272C158.498 79.6167 158.607 81.0073 159.565 82.5028L159.591 82.5437L159.621 82.5811C159.793 82.79 159.98 83.0003 160.156 83.1987C160.207 83.2558 160.257 83.312 160.305 83.3668C160.53 83.6209 160.735 83.8608 160.914 84.105C161.271 84.5918 161.486 85.0441 161.517 85.5393L161.518 85.5618L161.521 85.5841C161.573 86.0267 161.467 86.6081 161.197 87.1818L161.186 87.204L161.177 87.2268C160.38 89.2217 158.525 90.3917 156.385 91.7407C156.286 91.8035 156.185 91.8668 156.085 91.9304C153.929 93.2932 151.528 94.8908 150.837 97.8746C150.553 99.0359 150.775 100.123 150.958 101.02L150.97 101.079C151.165 102.035 151.307 102.791 151.118 103.569C150.537 105.716 148.615 107.489 146.473 108.577C145.713 108.921 144.921 109.202 144.087 109.497C143.932 109.553 143.774 109.608 143.616 109.665C142.62 110.022 141.578 110.414 140.584 110.953C138.349 112.15 136.323 114.191 135.564 116.761C135.423 117.224 135.307 117.713 135.197 118.172C135.145 118.389 135.095 118.599 135.045 118.796C134.881 119.441 134.699 120.031 134.419 120.585C133.177 122.892 130.751 124.583 128.088 125.197C127.396 125.311 126.688 125.394 125.957 125.48C125.854 125.492 125.751 125.504 125.648 125.517C124.807 125.616 123.938 125.725 123.083 125.893C121.378 126.227 119.665 126.803 118.185 128.068C117.013 128.915 116.179 130.013 115.466 131.101C115.193 131.518 114.945 131.92 114.705 132.31C114.288 132.987 113.893 133.628 113.425 134.249C110.978 137.26 106.886 138.596 103.256 137.351L103.236 137.344L103.217 137.338C100.342 136.51 97.3286 137.516 95.007 139.04L94.9967 139.046L94.9866 139.053C93.9817 139.758 93.126 140.604 92.3348 141.387L92.2941 141.427C91.4741 142.239 90.7232 142.976 89.8734 143.553L89.8733 143.553L89.8647 143.559C87.0159 145.549 83.5662 145.988 81.0909 143.664L81.0732 143.647L81.0545 143.632C79.0631 141.974 76.333 142.083 74.2076 142.843L74.2007 142.846L74.1937 142.849C73.2878 143.191 72.4256 143.664 71.6045 144.154C71.2449 144.369 70.9062 144.578 70.5733 144.784C70.1138 145.068 69.6656 145.345 69.1893 145.619C67.5909 146.538 66.0912 147.164 64.4596 147.011L64.4415 147.009L64.4234 147.008C63.1967 146.949 62.2376 146.413 61.7703 145.462L61.7585 145.438L61.7452 145.415C61.6184 145.195 61.5054 144.95 61.3846 144.673C61.3579 144.612 61.3303 144.548 61.3021 144.482C61.2084 144.265 61.1064 144.029 60.9981 143.804C60.7146 143.216 60.3203 142.56 59.6264 142.101C58.2948 141.144 56.7631 141.073 55.3593 141.302C54.1275 141.503 52.8892 141.954 51.8509 142.333C51.7155 142.383 51.5834 142.431 51.4553 142.477L51.44 142.482L51.425 142.489C50.3843 142.912 49.2095 143.202 48.1655 143.16C47.1442 143.118 46.318 142.768 45.7785 141.973C45.5737 141.659 45.4711 141.256 45.4371 140.728C45.4112 140.326 45.4264 139.92 45.4433 139.469C45.4495 139.303 45.4559 139.131 45.4606 138.95C45.4926 137.729 45.4511 136.114 43.9911 135.094C42.6185 134.063 40.9483 134.157 39.5794 134.298C39.3735 134.319 39.1748 134.341 38.9814 134.363C38.4862 134.419 38.0261 134.47 37.5686 134.488C36.9452 134.512 36.4225 134.467 35.9814 134.307C35.1084 133.991 34.5833 133.316 34.5317 132.389L34.531 132.376L34.5298 132.363C34.4862 131.871 34.6155 131.288 34.8651 130.578C34.9877 130.229 35.1303 129.872 35.2813 129.496L35.282 129.494C35.4303 129.123 35.5866 128.733 35.7234 128.343C35.9937 127.572 36.2231 126.709 36.155 125.846C36.0835 124.937 35.6882 124.088 34.8365 123.371L34.8268 123.363L34.8168 123.355C34.0282 122.732 32.9648 122.537 32.1464 122.387C32.0799 122.375 32.015 122.363 31.952 122.351C31.0074 122.174 30.3865 122.01 30.0037 121.634C29.4977 121 29.3596 120.419 29.4056 119.855C29.4553 119.247 29.7262 118.59 30.1621 117.861C30.5117 117.277 30.9305 116.702 31.3684 116.102C31.4788 115.951 31.5905 115.797 31.7025 115.642C32.2385 114.899 32.7878 114.099 33.1224 113.289L33.1253 113.282L33.128 113.274C33.648 111.945 33.6949 110.883 33.3219 109.991C32.964 109.136 32.2738 108.592 31.7295 108.184C31.6629 108.134 31.5985 108.086 31.5362 108.04C31.0337 107.666 30.6671 107.393 30.42 107.031C30.1933 106.698 30.0381 106.233 30.2458 105.379L30.2459 105.379L30.249 105.366C30.6355 103.647 32.0017 102.419 33.6191 100.965C33.6794 100.911 33.7401 100.856 33.8011 100.801C35.3989 99.3627 37.2223 97.6639 37.4274 95.0852L37.4288 95.0671L37.4294 95.0489C37.4531 94.3661 37.2739 93.7813 37.0707 93.2835C36.982 93.0661 36.8831 92.8525 36.7931 92.6582C36.7817 92.6336 36.7705 92.6094 36.7594 92.5854C36.6624 92.3756 36.5761 92.185 36.5027 91.9951C36.0998 90.5832 36.6493 89.2974 37.7715 88.0811C38.9089 86.8485 40.5203 85.823 41.8929 85.0275L41.903 85.0217L41.9128 85.0157C43.0595 84.3067 44.3293 83.3784 45.3079 82.2357C46.2888 81.0902 47.0239 79.672 46.9699 78.0115L46.9691 77.9878L46.967 77.9641C46.7411 75.4872 48.3907 73.3571 50.6356 72.0434L50.6468 72.0368L50.6578 72.0299C51.3672 71.5837 52.1595 71.2476 53.0209 70.9089C53.1615 70.8536 53.3046 70.798 53.4494 70.7418C54.1705 70.4616 54.9351 70.1646 55.6596 69.8005L55.6615 69.7995C58.0582 68.5869 60.1691 66.5375 61.002 63.8771C61.6729 61.734 63.4154 59.9896 65.4431 59.0127L65.4573 59.0058L65.4713 58.9984C66.6821 58.3559 68.1055 58.1087 69.6126 57.8513C72.7251 57.3983 75.6766 55.601 77.4327 52.983L77.4387 52.9741L77.4444 52.9651C79.1016 50.3482 81.6739 48.3078 84.661 47.9582C85.3473 47.8779 86.0082 47.9391 86.765 48.0124L86.7969 48.0155C87.5209 48.0856 88.3369 48.1647 89.2064 48.0641C91.3158 47.8595 93.0063 46.856 94.4944 45.7155C95.11 45.2437 95.7085 44.7341 96.2874 44.2411C96.4061 44.14 96.524 44.0396 96.6411 43.9404C97.3327 43.3542 98.0032 42.8014 98.6969 42.3246C100.534 41.2038 102.819 40.5079 104.613 41.1201C106.247 42.0684 107.767 42.3564 109.217 42.2077C110.663 42.0595 111.978 41.4826 113.199 40.8229C113.745 40.528 114.287 40.2077 114.816 39.8948C114.88 39.8573 114.943 39.82 115.006 39.7827C115.602 39.4313 116.184 39.0917 116.775 38.7868C117.957 38.1769 119.126 37.7316 120.372 37.6388L120.372 37.6389L120.38 37.6382C121.445 37.5488 122.059 37.7437 122.484 38.0024C122.898 38.2541 123.191 38.5909 123.58 39.0375C123.629 39.0944 123.68 39.1531 123.733 39.2136C124.179 39.7217 124.741 40.3206 125.628 40.6797C126.518 41.0398 127.63 41.1204 129.129 40.8385L129.136 40.837C129.942 40.6775 130.739 40.4067 131.505 40.1184C131.832 39.995 132.143 39.8728 132.449 39.7526C132.889 39.5801 133.317 39.4116 133.769 39.2498C135.267 38.713 136.624 38.405 137.94 38.7223L137.947 38.7241C138.949 38.955 139.509 39.4109 139.642 40.1174C139.662 40.2283 139.681 40.347 139.701 40.4715C139.797 41.0584 139.913 41.7732 140.157 42.3961C140.472 43.2028 141.035 43.964 142.091 44.3322C143.632 44.9891 145.299 44.7658 146.745 44.5079C146.972 44.4675 147.192 44.4266 147.408 44.3865C148.665 44.153 149.749 43.9516 150.744 44.0993C151.538 44.2427 152.039 44.4613 152.352 44.6959C152.65 44.9185 152.812 45.1787 152.894 45.4954C152.983 45.834 152.987 46.2674 152.902 46.8209C152.816 47.3719 152.65 47.9908 152.438 48.6843L152.43 48.7079L152.425 48.7319C152.086 50.1373 152.539 51.3597 153.404 52.2129C154.241 53.0398 155.441 53.5065 156.653 53.5536C156.749 53.5602 156.846 53.5667 156.943 53.5733C158.196 53.6577 159.517 53.7467 160.535 54.1344C161.067 54.337 161.441 54.5959 161.672 54.9141C161.892 55.2157 162.04 55.6495 161.978 56.3289C161.918 56.8407 161.669 57.4089 161.282 58.0786C161.099 58.394 160.898 58.7122 160.686 59.0476L160.655 59.0975C160.435 59.4457 160.205 59.812 159.994 60.1833C159.579 60.9161 159.193 61.7459 159.106 62.634C159.014 63.5635 159.253 64.4964 159.969 65.3896ZM65.8758 88.9767L65.8806 88.9685L65.8851 88.9602C66.643 87.5807 66.658 86.1792 65.8095 85.1951C64.9973 84.2531 63.6241 83.9737 62.21 84.2717C60.7572 84.5352 59.0024 85.4208 57.7357 86.6449C56.4731 87.865 55.5108 89.6247 56.2036 91.5558L56.2311 91.6325L56.2733 91.7022C56.969 92.8524 58.1318 93.1986 59.2037 93.1807C60.2571 93.163 61.336 92.8031 62.1529 92.4049L62.1654 92.3988L62.1777 92.3922C63.6227 91.6254 64.9866 90.5095 65.8758 88.9767ZM80.3915 115.237L80.3792 115.237L80.3669 115.237C78.6227 115.262 76.816 115.942 75.3872 117.037C73.9582 118.131 72.8354 119.697 72.5887 121.542L72.5853 121.568L72.5835 121.594C72.5191 122.525 72.7731 123.311 73.2946 123.906C73.8012 124.484 74.496 124.81 75.196 124.971C76.5663 125.287 78.202 125.029 79.339 124.437C81.0247 123.643 82.5596 122.421 83.438 120.699C84.0983 119.479 84.1513 118.136 83.5836 117.056C83.0057 115.956 81.8527 115.26 80.3915 115.237ZM114.218 59.1478L114.22 59.1451C114.633 58.3938 114.783 57.5081 114.561 56.6946C114.331 55.853 113.717 55.1545 112.754 54.8319L112.742 54.8279L112.73 54.8242C111.255 54.38 109.681 54.632 108.311 55.2294C106.941 55.8265 105.7 56.7989 104.855 57.9179C103.948 59.0722 103.604 60.4489 104.12 61.6011C104.656 62.7971 105.949 63.3926 107.545 63.2977L107.555 63.2971L107.565 63.2963C110.166 63.0795 112.889 61.5463 114.218 59.1478ZM125.086 87.6518L125.081 87.6631L125.076 87.6746C124.64 88.6429 124.535 89.5563 124.776 90.3648C125.018 91.1771 125.577 91.7699 126.251 92.1544C127.554 92.8988 129.386 92.9349 130.897 92.3583C132.931 91.6929 134.996 90.3314 135.938 88.2127C136.6 86.8689 136.463 85.5293 135.671 84.5466C134.904 83.5946 133.628 83.1053 132.24 83.172C129.345 83.2503 126.382 84.9924 125.086 87.6518ZM85.1702 64.0103L85.141 63.9961L85.1107 63.9844C84.1827 63.624 83.085 63.6778 82.0555 63.9399C81.0112 64.2059 79.9465 64.7082 79.0299 65.3589C78.1176 66.0065 77.3061 66.834 76.8224 67.7779C76.3305 68.7377 76.1679 69.8487 76.6414 70.9535L76.6851 71.0555L76.7545 71.142C77.6991 72.3204 79.0568 72.5362 80.2689 72.3713C81.4606 72.2092 82.6393 71.6723 83.5083 71.1491C84.5764 70.5635 85.82 69.3605 86.4404 68.0702C86.7549 67.4161 86.9537 66.6461 86.7824 65.8819C86.6017 65.0761 86.046 64.4336 85.1702 64.0103ZM96.55 91.7037L96.5663 91.694L96.5821 91.6836C98.1149 90.6777 99.1179 89.5419 99.6082 88.4068C100.101 87.2647 100.078 86.0951 99.4871 85.1716C98.8976 84.2508 97.8454 83.7341 96.6068 83.6824C95.3723 83.6309 93.9219 84.0318 92.3745 84.957L92.3652 84.9625L92.3561 84.9683C90.8 85.9558 89.7781 87.0826 89.2748 88.2164C88.7681 89.3577 88.7852 90.5324 89.3771 91.4626C89.9664 92.3887 91.0239 92.9127 92.272 92.9702C93.5166 93.0275 94.9825 92.6308 96.55 91.7037ZM64.1757 107.179L64.1422 107.104L54.9057 110.181L54.1824 109.808C54.182 109.809 54.1817 109.81 54.1813 109.811C53.5946 110.953 53.4119 112.008 53.7143 112.908C54.0242 113.831 54.7731 114.387 55.5991 114.659C57.1939 115.185 59.3847 114.784 60.9562 113.709C61.8945 113.092 62.965 112.19 63.6786 111.106C64.4002 110.011 64.8171 108.621 64.1757 107.179ZM134.935 63.2945L134.888 63.2225L134.826 63.1619C133.455 61.8079 131.599 61.7432 129.985 62.1846C128.369 62.6263 126.818 63.6104 125.802 64.6508L125.782 64.671L125.764 64.6926C124.712 65.931 124.173 67.1012 124.223 68.1618C124.275 69.2924 124.979 70.0744 125.88 70.4979C126.755 70.9092 127.855 71.0143 128.946 70.8728C130.044 70.7304 131.199 70.3306 132.212 69.6559C133.133 69.0727 134.172 68.1655 134.82 67.0975C135.478 66.014 135.804 64.6176 134.935 63.2945ZM111.146 114.713L111.161 114.703L111.176 114.694C114.384 112.611 115.467 109.734 114.156 107.692C112.857 105.67 109.774 105.373 106.5 107.3L106.485 107.309L106.47 107.319C103.262 109.402 102.179 112.279 103.49 114.321C104.789 116.343 107.872 116.64 111.146 114.713Z" stroke="url(#paint9_linear_985:5105)" stroke-width="1.62581"/>
</g>
<g filter="url(#filter8_d_985:5105)">
<ellipse rx="76.4164" ry="55.1935" transform="matrix(0.846324 -0.532669 0.534682 0.845054 94.0667 87.1169)" fill="url(#paint10_radial_985:5105)"/>
</g>
<g filter="url(#filter9_d_985:5105)">
<g filter="url(#filter10_i_985:5105)">
<path d="M70.8542 134.7C70.8542 134.7 74.8654 138.295 79.7383 137.724C84.6111 137.153 87.2494 134.532 87.2494 134.532C87.2494 134.532 91.86 129.05 94.7318 129.749C97.6035 130.449 101.465 131.431 105.809 129.089C110.223 126.658 111.839 122.802 111.839 122.802C111.839 122.802 114.046 118.558 117.727 118.685C121.407 118.811 125.863 117.412 127.929 115.337C129.994 113.262 131.546 111.565 132.085 108.712C132.624 105.859 133.936 103.474 138.124 102.505C142.312 101.536 146.24 98.3651 147.394 94.6431C148.547 90.921 147.708 87.1935 147.708 87.1935C147.708 87.1935 148.798 85.631 149.939 85.1784C151.16 84.7165 157.482 80.2292 157.853 75.9612C158.225 71.6932 156.4 67.0449 156.4 67.0449C156.4 67.0449 166.572 60.7514 157.542 47.064C157.542 47.064 160.539 34.6769 148.07 28.9648C148.07 28.9648 144.765 16.5194 132.847 19.5104C132.847 19.5104 128.009 10.2735 118.123 14.9395C116.241 15.8773 114.739 15.9737 114.739 15.9737C114.739 15.9737 112.448 13.4525 109.831 12.8825C107.214 12.3125 105.67 12.7326 103.446 13.4714C101.223 14.2103 97.4108 17.686 95.1171 17.1578C93.5866 17.0183 93.8029 15.4785 87.9776 16.0816C86.8172 16.377 83.147 17.684 80.458 20.5498C77.769 23.4156 75.8776 22.92 75.8776 22.92C75.8776 22.92 71.6191 22.622 70.0751 23.0421C68.5311 23.4622 64.773 24.6998 61.5213 29.5445C59.8168 31.9761 57.0939 32.5344 57.0939 32.5344C57.0939 32.5344 49.9646 32.8918 46.3385 37.9398C43.2016 41.7349 46.4333 41.4358 40.8829 45.0356C37.287 46.9715 35.5756 45.9765 31.3952 51.7271C29.548 54.9725 31.9295 55.5702 29.5363 58.2419C27.1431 60.9136 25.4461 60.714 23.3808 62.7893C21.3155 64.8647 17.116 63.0454 20.4295 74.2145C20.4295 74.2145 19.0808 76.2856 16.3681 78.2774C13.6554 80.2692 13.1318 85.2724 13.6136 86.6507C14.0168 88.0381 13.7954 88.8612 15.7393 91.8216C15.7393 91.8216 7.63008 99.3878 17.7814 109.755C17.7814 109.755 16.9437 122.208 30.1328 125.923C30.1328 125.923 36.8743 139.799 48.5491 133.409C48.5491 133.409 52.8546 141.513 62.5529 138.622C67.9472 136.396 68.0248 135.032 70.8542 134.7Z" fill="url(#paint11_radial_985:5105)"/>
<path d="M70.8542 134.7C70.8542 134.7 74.8654 138.295 79.7383 137.724C84.6111 137.153 87.2494 134.532 87.2494 134.532C87.2494 134.532 91.86 129.05 94.7318 129.749C97.6035 130.449 101.465 131.431 105.809 129.089C110.223 126.658 111.839 122.802 111.839 122.802C111.839 122.802 114.046 118.558 117.727 118.685C121.407 118.811 125.863 117.412 127.929 115.337C129.994 113.262 131.546 111.565 132.085 108.712C132.624 105.859 133.936 103.474 138.124 102.505C142.312 101.536 146.24 98.3651 147.394 94.6431C148.547 90.921 147.708 87.1935 147.708 87.1935C147.708 87.1935 148.798 85.631 149.939 85.1784C151.16 84.7165 157.482 80.2292 157.853 75.9612C158.225 71.6932 156.4 67.0449 156.4 67.0449C156.4 67.0449 166.572 60.7514 157.542 47.064C157.542 47.064 160.539 34.6769 148.07 28.9648C148.07 28.9648 144.765 16.5194 132.847 19.5104C132.847 19.5104 128.009 10.2735 118.123 14.9395C116.241 15.8773 114.739 15.9737 114.739 15.9737C114.739 15.9737 112.448 13.4525 109.831 12.8825C107.214 12.3125 105.67 12.7326 103.446 13.4714C101.223 14.2103 97.4108 17.686 95.1171 17.1578C93.5866 17.0183 93.8029 15.4785 87.9776 16.0816C86.8172 16.377 83.147 17.684 80.458 20.5498C77.769 23.4156 75.8776 22.92 75.8776 22.92C75.8776 22.92 71.6191 22.622 70.0751 23.0421C68.5311 23.4622 64.773 24.6998 61.5213 29.5445C59.8168 31.9761 57.0939 32.5344 57.0939 32.5344C57.0939 32.5344 49.9646 32.8918 46.3385 37.9398C43.2016 41.7349 46.4333 41.4358 40.8829 45.0356C37.287 46.9715 35.5756 45.9765 31.3952 51.7271C29.548 54.9725 31.9295 55.5702 29.5363 58.2419C27.1431 60.9136 25.4461 60.714 23.3808 62.7893C21.3155 64.8647 17.116 63.0454 20.4295 74.2145C20.4295 74.2145 19.0808 76.2856 16.3681 78.2774C13.6554 80.2692 13.1318 85.2724 13.6136 86.6507C14.0168 88.0381 13.7954 88.8612 15.7393 91.8216C15.7393 91.8216 7.63008 99.3878 17.7814 109.755C17.7814 109.755 16.9437 122.208 30.1328 125.923C30.1328 125.923 36.8743 139.799 48.5491 133.409C48.5491 133.409 52.8546 141.513 62.5529 138.622C67.9472 136.396 68.0248 135.032 70.8542 134.7Z" fill="url(#paint12_linear_985:5105)" fill-opacity="0.5"/>
</g>
<g filter="url(#filter11_d_985:5105)">
<path d="M142.422 29.1535C144.992 29.331 148.83 29.4401 148.514 32.8257C148.202 35.573 143.993 38.3778 146.33 41.2935C147.968 43.0153 151.787 42.967 151.6 46.0984C151.6 50.8025 142.652 53.2849 145.976 58.477C146.814 59.4952 147.966 60.4765 148.055 61.9013C148.129 62.5304 147.978 63.2657 147.659 63.9408C145.754 68.7084 138.566 69.2308 137.355 74.4753C136.871 76.4454 138.116 78.2132 137.633 80.1833C136.969 82.6529 134.807 84.5802 132.552 85.7212C130.662 86.5802 128.568 87.0644 126.697 88.0808C124.599 89.2033 122.752 91.0939 122.07 93.4062C121.669 94.7288 121.513 96.1024 120.867 97.374C119.496 99.9263 116.844 101.752 113.974 102.406C110.692 102.95 107.09 102.813 104.415 105.12C102.286 106.645 101.308 109.151 99.7933 111.162C97.1519 114.421 92.7058 115.898 88.7195 114.531C86.1623 113.794 83.3985 114.675 81.1807 116.131C79.268 117.471 77.9013 119.385 76.0578 120.637C73.0409 122.744 69.1303 123.361 66.2616 120.667C64.5821 119.269 62.1966 119.309 60.2094 120.02C56.8542 121.29 53.8984 124.586 50.1118 124.232C48.6693 124.162 47.3974 123.513 46.7675 122.231C46.1655 121.186 45.9285 119.858 44.8924 119.182C42.7135 117.603 39.7512 118.827 37.4589 119.653C35.2545 120.549 32.2776 120.977 30.8287 118.835C29.5648 116.909 31.4111 113.664 29.2415 112.164C27.0533 110.506 23.7633 112.326 21.4325 111.483C20.2671 111.061 19.5173 110.112 19.4468 108.845C19.2086 106.162 22.7837 102.714 20.0401 100.404C18.7216 99.3622 16.3041 99.8045 15.1241 98.5872C12.5138 95.3846 16.9213 92.2377 18.0976 89.3892C19.9933 84.5429 14.1647 85.7832 15.1826 81.5978C16.1219 77.4216 21.9918 75.8576 22.3437 71.4313C22.3798 70.3906 21.8058 69.5807 21.4582 68.6646C20.3916 65.0421 24.4528 62.3344 27.2113 60.7359C29.4384 59.359 31.9745 57.2284 31.8841 54.4484C31.618 51.5295 33.5667 49.1487 35.951 47.7535C37.508 46.7739 39.3661 46.3173 41.0204 45.4858C43.2754 44.3449 45.2015 42.4451 45.9529 40.045C46.7043 37.6449 48.6303 35.7451 50.8161 34.692C52.1654 33.976 53.7277 33.7134 55.2115 33.46C58.1098 33.0411 60.859 31.3639 62.4841 28.9413C64.2291 26.1857 66.9917 23.9489 70.2922 23.5626C71.8639 23.3787 73.2744 23.8514 74.846 23.6675C78.6274 23.3047 81.0331 20.0731 83.9807 18.0538C85.9121 16.871 88.5187 16.0078 90.683 16.791C96.7657 20.3846 100.43 13.657 106.038 13.2399C110.85 12.8362 109.093 17.5067 114.704 16.4513C117.662 15.8659 120.739 13.5923 123.856 14.3438C125.003 14.6082 125.951 15.2148 126.169 16.3852C126.416 17.7915 126.533 19.4522 128.11 19.9852C130.714 21.1156 133.925 19.3046 136.602 19.7089C140.102 20.3357 139.804 22.5234 138.942 25.3351C138.408 27.5503 140.341 29.0781 142.422 29.1535ZM50.8992 64.9798C52.21 62.594 50.5811 60.9508 48.0944 61.481C45.5198 61.9418 41.6251 64.7098 42.6957 67.694C43.6865 69.3321 46.0161 68.8203 47.5226 68.0859C48.8718 67.3698 50.1053 66.3484 50.8992 64.9798ZM68.445 96.732C69.5573 94.6883 68.5012 92.4998 66.1064 92.4611C63.0044 92.5052 59.5439 94.9035 59.1214 98.0624C58.9161 101.036 62.7533 101.145 64.7033 100.12C66.2884 99.3763 67.6697 98.2579 68.445 96.732ZM99.234 35.1647C99.8894 33.9718 99.6338 32.4868 98.2233 32.0141C95.7446 31.2677 92.741 32.8151 91.2265 34.8262C89.6334 36.8464 90.4537 39.0626 93.2228 38.898C95.5896 38.7007 98.0524 37.2963 99.234 35.1647ZM120.929 64.2786C122.023 62.0776 120.375 60.2772 117.999 60.3958C115.378 60.4634 112.698 62.0527 111.544 64.4202C110.031 67.7865 113.684 69.0333 116.351 68.0036C118.269 67.3805 120.112 66.1283 120.929 64.2786ZM68.8294 46.8556C70.7009 45.8393 73.333 42.5015 70.544 41.1535C67.7045 40.0507 61.6839 43.7053 63.1155 47.0459C64.5179 48.7953 67.1938 47.8443 68.8294 46.8556ZM81.8621 67.4156C87.6283 63.6313 84.3228 58.5965 78.5194 62.0663C72.6653 65.7811 75.9801 70.8946 81.8621 67.4156ZM46.2291 89.4455C48.0033 88.2811 50.1372 86.1178 49.1597 83.92C47.0581 80.9768 41.9247 84.0492 40.6325 86.5923C38.4959 90.7492 43.4292 91.3678 46.2291 89.4455ZM117.495 45.3857C119.2 44.3092 121.246 42.0765 119.982 40.1514C117.817 38.0129 113.958 39.7402 112.111 41.6308C108.125 46.3229 113.878 47.8024 117.495 45.3857ZM96.4597 90.4236C102.6 86.436 98.8964 80.7302 92.6401 84.4125C86.4997 88.4001 90.2034 94.1058 96.4597 90.4236Z" fill="white"/>
<path d="M145.696 41.8012L145.718 41.8282L145.741 41.8532C146.254 42.3916 146.906 42.7627 147.514 43.0602C147.774 43.1874 148.042 43.3085 148.296 43.4235C148.342 43.4442 148.387 43.4646 148.432 43.4849C148.731 43.6208 149.011 43.7502 149.273 43.8873C149.804 44.1653 150.192 44.4407 150.443 44.7648C150.673 45.0628 150.824 45.4504 150.789 46.0489L150.787 46.073L150.787 46.0972C150.787 47.0027 150.359 47.861 149.621 48.7761C149.094 49.4292 148.475 50.0371 147.822 50.6784C147.54 50.9557 147.251 51.2392 146.96 51.5353C146.046 52.468 145.123 53.5211 144.687 54.7388C144.225 56.0283 144.334 57.4189 145.291 58.9144L145.318 58.9553L145.348 58.9927C145.52 59.2018 145.707 59.4123 145.884 59.6108C145.934 59.6678 145.984 59.7237 146.032 59.7784C146.257 60.0325 146.462 60.2724 146.641 60.5166C146.998 61.0034 147.212 61.4558 147.243 61.9509L147.245 61.9734L147.248 61.9958C147.3 62.4383 147.194 63.0198 146.924 63.5934L146.913 63.6156L146.904 63.6384C146.107 65.6333 144.252 66.8033 142.112 68.1524C142.013 68.2152 141.912 68.2784 141.812 68.3421C139.656 69.7047 137.255 71.3022 136.564 74.2856C136.28 75.4471 136.502 76.5348 136.685 77.4314L136.697 77.4904C136.892 78.447 137.034 79.2022 136.845 79.9804C136.264 82.1278 134.341 83.9007 132.199 84.9883C131.44 85.3323 130.648 85.6133 129.814 85.9091C129.658 85.9643 129.501 86.02 129.343 86.0767C128.346 86.4332 127.305 86.8255 126.311 87.3652C124.075 88.5618 122.049 90.6031 121.29 93.1727C121.15 93.6354 121.034 94.1245 120.924 94.5838C120.872 94.8004 120.822 95.0104 120.772 95.2079C120.608 95.8524 120.426 96.4432 120.146 96.9971C118.903 99.3034 116.478 100.995 113.815 101.609C113.123 101.723 112.415 101.806 111.684 101.892C111.581 101.904 111.478 101.916 111.375 101.928C110.534 102.028 109.665 102.137 108.809 102.304C107.105 102.638 105.392 103.215 103.912 104.48C102.74 105.327 101.906 106.425 101.193 107.513C100.92 107.93 100.672 108.332 100.432 108.722C100.015 109.398 99.6194 110.039 99.1522 110.661C96.7046 113.672 92.6125 115.007 88.9824 113.762L88.9632 113.756L88.9438 113.75C86.0688 112.921 83.0554 113.928 80.7338 115.451L80.7235 115.458L80.7135 115.465C79.7086 116.169 78.8528 117.016 78.0616 117.799L78.021 117.839C77.201 118.65 76.4501 119.387 75.6002 119.965L75.6002 119.965L75.5916 119.971C72.7428 121.96 69.2931 122.4 66.8178 120.075L66.8 120.059L66.7813 120.043C64.79 118.386 62.0598 118.495 59.9345 119.255L59.9275 119.258L59.9206 119.26C59.0146 119.603 58.1524 120.076 57.3313 120.566C56.9718 120.78 56.633 120.99 56.3001 121.195C55.8407 121.479 55.3924 121.757 54.9162 122.03C53.3177 122.95 51.8181 123.575 50.1864 123.423L50.1684 123.421L50.1503 123.42C48.9236 123.36 47.9645 122.825 47.4971 121.874L47.4854 121.85L47.472 121.827C47.3452 121.606 47.2323 121.362 47.1115 121.085C47.0847 121.024 47.0572 120.96 47.0289 120.894C46.9352 120.677 46.8333 120.44 46.725 120.216C46.4414 119.628 46.0472 118.972 45.3533 118.513C44.0217 117.556 42.49 117.485 41.0862 117.713C39.8543 117.914 38.616 118.366 37.5778 118.745C37.4423 118.794 37.3103 118.842 37.1821 118.889L37.1668 118.894L37.1518 118.9C36.1111 119.323 34.9363 119.614 33.8924 119.571C32.871 119.53 32.0449 119.179 31.5053 118.385C31.3005 118.071 31.1979 117.668 31.1639 117.14C31.138 116.738 31.1532 116.332 31.1701 115.88C31.1763 115.714 31.1828 115.542 31.1875 115.362C31.2194 114.14 31.178 112.525 29.718 111.505C28.3454 110.475 26.6751 110.569 25.3063 110.709C25.1003 110.731 24.9016 110.753 24.7083 110.775C24.2131 110.83 23.753 110.882 23.2954 110.9C22.6721 110.924 22.1493 110.878 21.7083 110.719C20.8352 110.403 20.3101 109.728 20.2586 108.801L20.2578 108.788L20.2566 108.774C20.213 108.283 20.3424 107.7 20.592 106.989C20.7145 106.64 20.8572 106.284 21.0081 105.907L21.0089 105.905C21.1571 105.535 21.3134 105.145 21.4503 104.754C21.7206 103.983 21.9499 103.121 21.8819 102.257C21.8103 101.349 21.415 100.5 20.5633 99.7825L20.5536 99.7743L20.5437 99.7664C19.755 99.1434 18.6917 98.9485 17.8733 98.7984C17.8068 98.7863 17.7419 98.7744 17.6789 98.7626C16.7343 98.5855 16.1134 98.4215 15.7306 98.0452C15.2245 97.412 15.0864 96.8301 15.1324 96.2667C15.1821 95.6583 15.4531 95.0021 15.8889 94.2731C16.2385 93.6884 16.6574 93.114 17.0953 92.5135C17.2057 92.3621 17.3173 92.209 17.4294 92.0537C17.9653 91.3106 18.5146 90.5104 18.8492 89.7002L18.8521 89.6932L18.8549 89.6861C19.3749 88.3567 19.4218 87.2944 19.0487 86.403C18.6908 85.548 18.0007 85.0034 17.4563 84.5955C17.3898 84.5457 17.3253 84.4978 17.263 84.4514C16.7606 84.0775 16.3939 83.8047 16.1468 83.4423C15.9201 83.1098 15.7649 82.6451 15.9726 81.7909L15.9728 81.7909L15.9758 81.7772C16.3623 80.0587 17.7285 78.8305 19.3459 77.3764C19.4063 77.3221 19.4669 77.2676 19.5279 77.2127C21.1258 75.7743 22.9492 74.0755 23.1542 71.4968L23.1556 71.4787L23.1563 71.4605C23.1799 70.7777 23.0007 70.1929 22.7975 69.6951C22.7088 69.4777 22.6099 69.2641 22.5199 69.0698C22.5085 69.0452 22.4973 69.021 22.4863 68.997C22.3893 68.7872 22.303 68.5966 22.2296 68.4067C21.8266 66.9949 22.3761 65.709 23.4983 64.4928C24.6357 63.2601 26.2471 62.2346 27.6198 61.4392L27.6298 61.4334L27.6397 61.4273C28.7864 60.7183 30.0562 59.79 31.0347 58.6474C32.0157 57.5019 32.7507 56.0836 32.6967 54.4231L32.696 54.3994L32.6938 54.3757C32.4679 51.8988 34.1176 49.7687 36.3624 48.455L36.3737 48.4485L36.3847 48.4415C37.094 47.9953 37.8864 47.6593 38.7478 47.3205C38.8884 47.2652 39.0315 47.2096 39.1763 47.1534C39.8973 46.8733 40.662 46.5762 41.3864 46.2121L41.3884 46.2111C43.7851 44.9985 45.896 42.9491 46.7288 40.2887C47.3998 38.1456 49.1423 36.4012 51.1699 35.4243L51.1842 35.4174L51.1981 35.41C52.4089 34.7675 53.8324 34.5203 55.3395 34.2629C58.452 33.81 61.4034 32.0127 63.1596 29.3946L63.1655 29.3858L63.1713 29.3767C64.8284 26.7598 67.4007 24.7194 70.3879 24.3699C71.0741 24.2895 71.735 24.3507 72.4918 24.424L72.5237 24.4271C73.2477 24.4973 74.0638 24.5764 74.9332 24.4757C77.0426 24.2711 78.7332 23.2676 80.2213 22.1271C80.8369 21.6553 81.4354 21.1456 82.0143 20.6527C82.133 20.5516 82.2509 20.4512 82.3679 20.352C83.0595 19.7658 83.73 19.213 84.4238 18.7362C86.2613 17.6154 88.5457 16.9195 90.3403 17.5317C91.9743 18.48 93.4941 18.768 94.9438 18.6194C96.3895 18.4712 97.7053 17.8943 98.926 17.2345C99.4717 16.9396 100.014 16.6193 100.543 16.3064C100.607 16.2689 100.67 16.2316 100.733 16.1944C101.328 15.843 101.911 15.5033 102.502 15.1984C103.684 14.5885 104.852 14.1432 106.099 14.0505L106.099 14.0505L106.107 14.0498C107.172 13.9605 107.786 14.1553 108.211 14.4141C108.625 14.6657 108.918 15.0025 109.307 15.4491C109.356 15.506 109.407 15.5647 109.46 15.6252C109.906 16.1334 110.468 16.7322 111.355 17.0913C112.245 17.4514 113.357 17.532 114.856 17.2501L114.863 17.2487C115.669 17.0891 116.466 16.8184 117.232 16.53C117.559 16.4066 117.87 16.2844 118.176 16.1643C118.615 15.9917 119.044 15.8233 119.496 15.6614C120.994 15.1247 122.351 14.8167 123.666 15.1339L123.674 15.1357C124.676 15.3666 125.236 15.8226 125.369 16.529C125.389 16.6399 125.408 16.7587 125.428 16.8832C125.524 17.47 125.64 18.1849 125.883 18.8077C126.199 19.6145 126.762 20.3756 127.817 20.7438C129.359 21.4007 131.026 21.1774 132.472 20.9195C132.698 20.8792 132.919 20.8382 133.134 20.7981C134.392 20.5646 135.476 20.3632 136.471 20.5109C137.265 20.6543 137.765 20.873 138.079 21.1075C138.377 21.3302 138.538 21.5903 138.621 21.907C138.71 22.2456 138.714 22.679 138.629 23.2325C138.543 23.7835 138.377 24.4024 138.164 25.0959L138.157 25.1195L138.151 25.1435C137.812 26.5489 138.266 27.7713 139.13 28.6246C139.968 29.4514 141.168 29.9181 142.38 29.9652C142.476 29.9718 142.573 29.9784 142.67 29.9849C143.923 30.0694 145.244 30.1583 146.262 30.546C146.794 30.7486 147.168 31.0076 147.399 31.3257C147.618 31.6273 147.767 32.0611 147.705 32.7406C147.645 33.2524 147.396 33.8205 147.008 34.4902C146.826 34.8057 146.625 35.1238 146.413 35.4592L146.382 35.5091C146.162 35.8573 145.932 36.2236 145.721 36.5949C145.306 37.3277 144.92 38.1576 144.832 39.0456C144.74 39.9751 144.98 40.908 145.696 41.8012ZM51.6027 65.3883L51.6074 65.3801L51.6119 65.3719C52.3699 63.9923 52.3849 62.5908 51.5364 61.6067C50.7241 60.6647 49.351 60.3854 47.9369 60.6833C46.484 60.9468 44.7292 61.8324 43.4626 63.0565C42.2 64.2766 41.2376 66.0363 41.9304 67.9674L41.958 68.0441L42.0001 68.1138C42.6959 69.2641 43.8587 69.6102 44.9305 69.5923C45.984 69.5746 47.0629 69.2147 47.8798 68.8165L47.8923 68.8104L47.9045 68.8039C49.3495 68.0371 50.7135 66.9211 51.6027 65.3883ZM66.1184 91.6484L66.1061 91.6482L66.0937 91.6484C64.3496 91.6732 62.5429 92.354 61.1141 93.4483C59.6851 94.5426 58.5623 96.1085 58.3156 97.9536L58.3121 97.9794L58.3103 98.0053C58.246 98.937 58.4999 99.7225 59.0215 100.318C59.528 100.896 60.2228 101.222 60.9229 101.383C62.2932 101.698 63.9288 101.44 65.0659 100.848C66.7515 100.054 68.2865 98.8327 69.1648 97.1109C69.8251 95.8908 69.8782 94.5477 69.3105 93.4675C68.7325 92.3677 67.5796 91.672 66.1184 91.6484ZM99.9453 35.5594L99.9467 35.5567C100.36 34.8054 100.51 33.9198 100.288 33.1062C100.058 32.2646 99.4434 31.5662 98.4808 31.2435L98.4689 31.2395L98.4568 31.2359C96.9815 30.7916 95.4078 31.0436 94.0375 31.641C92.6678 32.2381 91.4271 33.2105 90.5822 34.3296C89.6749 35.4839 89.3308 36.8606 89.8469 38.0127C90.3826 39.2087 91.6757 39.8042 93.2722 39.7093L93.2818 39.7088L93.2914 39.708C95.8925 39.4912 98.6157 37.9579 99.9453 35.5594ZM110.813 64.0634L110.808 64.0747L110.802 64.0862C110.367 65.0546 110.261 65.9679 110.503 66.7764C110.745 67.5887 111.304 68.1815 111.978 68.566C113.281 69.3104 115.113 69.3465 116.624 68.7699C118.658 68.1045 120.722 66.743 121.665 64.6243C122.327 63.2805 122.19 61.9409 121.398 60.9582C120.631 60.0062 119.355 59.5169 117.967 59.5836C115.072 59.6619 112.109 61.404 110.813 64.0634ZM70.8971 40.4219L70.8678 40.4077L70.8375 40.396C69.9096 40.0356 68.8118 40.0894 67.7823 40.3516C66.738 40.6175 65.6734 41.1198 64.7567 41.7705C63.8445 42.4181 63.0329 43.2456 62.5492 44.1895C62.0573 45.1493 61.8948 46.2603 62.3682 47.3651L62.4119 47.4671L62.4813 47.5537C63.426 48.7321 64.7837 48.9478 65.9957 48.7829C67.1875 48.6208 68.3662 48.0839 69.2352 47.5607C70.3033 46.9751 71.5468 45.7721 72.1672 44.4819C72.4818 43.8277 72.6805 43.0577 72.5092 42.2935C72.3286 41.4877 71.7729 40.8452 70.8971 40.4219ZM82.2769 68.1153L82.2932 68.1056L82.309 68.0952C83.8418 67.0893 84.8447 65.9536 85.335 64.8184C85.8283 63.6763 85.8052 62.5067 85.214 61.5832C84.6245 60.6624 83.5722 60.1457 82.3336 60.0941C81.0992 60.0426 79.6487 60.4434 78.1014 61.3686L78.0921 61.3741L78.083 61.3799C76.5269 62.3674 75.5049 63.4942 75.0016 64.628C74.495 65.7694 74.5121 66.944 75.1039 67.8742C75.6932 68.8003 76.7508 69.3243 77.9988 69.3818C79.2434 69.4391 80.7093 69.0424 82.2769 68.1153ZM49.9025 83.5907L49.8691 83.5155L49.8212 83.4485C49.1482 82.5059 48.2141 82.0389 47.2087 81.9302C46.2311 81.8246 45.2094 82.0572 44.2764 82.4496C42.4348 83.224 40.6603 84.743 39.9081 86.2223C39.3215 87.3646 39.1387 88.4198 39.4412 89.3199C39.7511 90.2425 40.5 90.7981 41.3259 91.0704C42.9208 91.5963 45.1116 91.1961 46.683 90.1204C47.6214 89.5036 48.6919 88.6013 49.4055 87.5179C50.127 86.4225 50.544 85.033 49.9025 83.5907ZM120.662 39.7061L120.615 39.6341L120.553 39.5736C119.182 38.2195 117.326 38.1548 115.712 38.5962C114.096 39.0379 112.545 40.022 111.529 41.0624L111.509 41.0826L111.49 41.1042C110.439 42.3426 109.9 43.5128 109.95 44.5734C110.002 45.7041 110.706 46.486 111.607 46.9095C112.482 47.3208 113.582 47.4259 114.673 47.2844C115.771 47.142 116.926 46.7422 117.939 46.0675C118.86 45.4843 119.899 44.5771 120.547 43.5091C121.205 42.4257 121.53 41.0292 120.662 39.7061ZM96.8729 91.1242L96.8883 91.1151L96.9032 91.1054C100.111 89.0226 101.194 86.1452 99.8827 84.1035C98.5842 82.0812 95.5009 81.785 92.2269 83.7119L92.2115 83.721L92.1966 83.7307C88.9893 85.8135 87.9062 88.6909 89.2171 90.7326C90.5156 92.7549 93.5989 93.0511 96.8729 91.1242Z" stroke="url(#paint13_linear_985:5105)" stroke-width="1.62581"/>
</g>
</g>
</g>
<defs>
<filter id="filter0_i_985:5105" x="9.80184" y="12.8616" width="88.7326" height="77.3547" filterUnits="userSpaceOnUse" color-interpolation-filters="sRGB">
<feFlood flood-opacity="0" result="BackgroundImageFix"/>
<feBlend mode="normal" in="SourceGraphic" in2="BackgroundImageFix" result="shape"/>
<feColorMatrix in="SourceAlpha" type="matrix" values="0 0 0 0 0 0 0 0 0 0 0 0 0 0 0 0 0 0 127 0" result="hardAlpha"/>
<feOffset dx="-0.812903" dy="-2.43871"/>
<feGaussianBlur stdDeviation="3.25161"/>
<feComposite in2="hardAlpha" operator="arithmetic" k2="-1" k3="1"/>
<feColorMatrix type="matrix" values="0 0 0 0 0.633576 0 0 0 0 0.708414 0 0 0 0 0.85809 0 0 0 0.67 0"/>
<feBlend mode="normal" in2="shape" result="effect1_innerShadow_985:5105"/>
</filter>
<filter id="filter1_d_985:5105" x="9.95925" y="15.6539" width="87.7305" height="72.199" filterUnits="userSpaceOnUse" color-interpolation-filters="sRGB">
<feFlood flood-opacity="0" result="BackgroundImageFix"/>
<feColorMatrix in="SourceAlpha" type="matrix" values="0 0 0 0 0 0 0 0 0 0 0 0 0 0 0 0 0 0 127 0" result="hardAlpha"/>
<feOffset dx="1.62581" dy="3.25161"/>
<feGaussianBlur stdDeviation="1.62581"/>
<feColorMatrix type="matrix" values="0 0 0 0 1 0 0 0 0 1 0 0 0 0 1 0 0 0 1 0"/>
<feBlend mode="normal" in2="BackgroundImageFix" result="effect1_dropShadow_985:5105"/>
<feBlend mode="normal" in="SourceGraphic" in2="effect1_dropShadow_985:5105" result="shape"/>
</filter>
<filter id="filter2_d_985:5105" x="6.63143" y="8.79523" width="87.3866" height="78.1279" filterUnits="userSpaceOnUse" color-interpolation-filters="sRGB">
<feFlood flood-opacity="0" result="BackgroundImageFix"/>
<feColorMatrix in="SourceAlpha" type="matrix" values="0 0 0 0 0 0 0 0 0 0 0 0 0 0 0 0 0 0 127 0" result="hardAlpha"/>
<feOffset dy="3.25161"/>
<feGaussianBlur stdDeviation="0.812903"/>
<feColorMatrix type="matrix" values="0 0 0 0 0.664046 0 0 0 0 0.628125 0 0 0 0 0.871875 0 0 0 0.67 0"/>
<feBlend mode="normal" in2="BackgroundImageFix" result="effect1_dropShadow_985:5105"/>
<feBlend mode="normal" in="SourceGraphic" in2="effect1_dropShadow_985:5105" result="shape"/>
</filter>
<filter id="filter3_d_985:5105" x="2.16769" y="1.34491" width="91.1713" height="79.7934" filterUnits="userSpaceOnUse" color-interpolation-filters="sRGB">
<feFlood flood-opacity="0" result="BackgroundImageFix"/>
<feColorMatrix in="SourceAlpha" type="matrix" values="0 0 0 0 0 0 0 0 0 0 0 0 0 0 0 0 0 0 127 0" result="hardAlpha"/>
<feOffset dx="1.62581" dy="3.25161"/>
<feGaussianBlur stdDeviation="0.812903"/>
<feColorMatrix type="matrix" values="0 0 0 0 0.570702 0 0 0 0 0.507292 0 0 0 0 0.942708 0 0 0 0.78 0"/>
<feBlend mode="normal" in2="BackgroundImageFix" result="effect1_dropShadow_985:5105"/>
<feBlend mode="normal" in="SourceGraphic" in2="effect1_dropShadow_985:5105" result="shape"/>
</filter>
<filter id="filter4_i_985:5105" x="1.35479" y="-1.0938" width="88.7326" height="77.3547" filterUnits="userSpaceOnUse" color-interpolation-filters="sRGB">
<feFlood flood-opacity="0" result="BackgroundImageFix"/>
<feBlend mode="normal" in="SourceGraphic" in2="BackgroundImageFix" result="shape"/>
<feColorMatrix in="SourceAlpha" type="matrix" values="0 0 0 0 0 0 0 0 0 0 0 0 0 0 0 0 0 0 127 0" result="hardAlpha"/>
<feOffset dx="-0.812903" dy="-2.43871"/>
<feGaussianBlur stdDeviation="3.25161"/>
<feComposite in2="hardAlpha" operator="arithmetic" k2="-1" k3="1"/>
<feColorMatrix type="matrix" values="0 0 0 0 0.722674 0 0 0 0 0.771447 0 0 0 0 0.868993 0 0 0 0.67 0"/>
<feBlend mode="normal" in2="shape" result="effect1_innerShadow_985:5105"/>
</filter>
<filter id="filter5_d_985:5105" x="1.51055" y="1.69855" width="87.7305" height="72.199" filterUnits="userSpaceOnUse" color-interpolation-filters="sRGB">
<feFlood flood-opacity="0" result="BackgroundImageFix"/>
<feColorMatrix in="SourceAlpha" type="matrix" values="0 0 0 0 0 0 0 0 0 0 0 0 0 0 0 0 0 0 127 0" result="hardAlpha"/>
<feOffset dx="1.62581" dy="3.25161"/>
<feGaussianBlur stdDeviation="1.62581"/>
<feColorMatrix type="matrix" values="0 0 0 0 1 0 0 0 0 1 0 0 0 0 1 0 0 0 1 0"/>
<feBlend mode="normal" in2="BackgroundImageFix" result="effect1_dropShadow_985:5105"/>
<feBlend mode="normal" in="SourceGraphic" in2="effect1_dropShadow_985:5105" result="shape"/>
</filter>
<filter id="filter6_i_985:5105" x="26.1379" y="33.767" width="149.421" height="129.067" filterUnits="userSpaceOnUse" color-interpolation-filters="sRGB">
<feFlood flood-opacity="0" result="BackgroundImageFix"/>
<feBlend mode="normal" in="SourceGraphic" in2="BackgroundImageFix" result="shape"/>
<feColorMatrix in="SourceAlpha" type="matrix" values="0 0 0 0 0 0 0 0 0 0 0 0 0 0 0 0 0 0 127 0" result="hardAlpha"/>
<feOffset dx="-0.812903" dy="-2.43871"/>
<feGaussianBlur stdDeviation="3.25161"/>
<feComposite in2="hardAlpha" operator="arithmetic" k2="-1" k3="1"/>
<feColorMatrix type="matrix" values="0 0 0 0 0.633576 0 0 0 0 0.708414 0 0 0 0 0.85809 0 0 0 0.67 0"/>
<feBlend mode="normal" in2="shape" result="effect1_innerShadow_985:5105"/>
</filter>
<filter id="filter7_d_985:5105" x="26.9585" y="36.8035" width="143.799" height="117.547" filterUnits="userSpaceOnUse" color-interpolation-filters="sRGB">
<feFlood flood-opacity="0" result="BackgroundImageFix"/>
<feColorMatrix in="SourceAlpha" type="matrix" values="0 0 0 0 0 0 0 0 0 0 0 0 0 0 0 0 0 0 127 0" result="hardAlpha"/>
<feOffset dx="1.62581" dy="3.25161"/>
<feGaussianBlur stdDeviation="1.62581"/>
<feColorMatrix type="matrix" values="0 0 0 0 1 0 0 0 0 1 0 0 0 0 1 0 0 0 1 0"/>
<feBlend mode="normal" in2="BackgroundImageFix" result="effect1_dropShadow_985:5105"/>
<feBlend mode="normal" in="SourceGraphic" in2="effect1_dropShadow_985:5105" result="shape"/>
</filter>
<filter id="filter8_d_985:5105" x="21.3356" y="25.2104" width="145.462" height="128.69" filterUnits="userSpaceOnUse" color-interpolation-filters="sRGB">
<feFlood flood-opacity="0" result="BackgroundImageFix"/>
<feColorMatrix in="SourceAlpha" type="matrix" values="0 0 0 0 0 0 0 0 0 0 0 0 0 0 0 0 0 0 127 0" result="hardAlpha"/>
<feOffset dy="3.25161"/>
<feGaussianBlur stdDeviation="0.812903"/>
<feColorMatrix type="matrix" values="0 0 0 0 0.664046 0 0 0 0 0.628125 0 0 0 0 0.871875 0 0 0 0.67 0"/>
<feBlend mode="normal" in2="BackgroundImageFix" result="effect1_dropShadow_985:5105"/>
<feBlend mode="normal" in="SourceGraphic" in2="effect1_dropShadow_985:5105" result="shape"/>
</filter>
<filter id="filter9_d_985:5105" x="12.6718" y="12.6174" width="151.859" height="131.505" filterUnits="userSpaceOnUse" color-interpolation-filters="sRGB">
<feFlood flood-opacity="0" result="BackgroundImageFix"/>
<feColorMatrix in="SourceAlpha" type="matrix" values="0 0 0 0 0 0 0 0 0 0 0 0 0 0 0 0 0 0 127 0" result="hardAlpha"/>
<feOffset dx="1.62581" dy="3.25161"/>
<feGaussianBlur stdDeviation="0.812903"/>
<feColorMatrix type="matrix" values="0 0 0 0 0.570702 0 0 0 0 0.507292 0 0 0 0 0.942708 0 0 0 0.78 0"/>
<feBlend mode="normal" in2="BackgroundImageFix" result="effect1_dropShadow_985:5105"/>
<feBlend mode="normal" in="SourceGraphic" in2="effect1_dropShadow_985:5105" result="shape"/>
</filter>
<filter id="filter10_i_985:5105" x="11.8589" y="10.1787" width="149.421" height="129.067" filterUnits="userSpaceOnUse" color-interpolation-filters="sRGB">
<feFlood flood-opacity="0" result="BackgroundImageFix"/>
<feBlend mode="normal" in="SourceGraphic" in2="BackgroundImageFix" result="shape"/>
<feColorMatrix in="SourceAlpha" type="matrix" values="0 0 0 0 0 0 0 0 0 0 0 0 0 0 0 0 0 0 127 0" result="hardAlpha"/>
<feOffset dx="-0.812903" dy="-2.43871"/>
<feGaussianBlur stdDeviation="3.25161"/>
<feComposite in2="hardAlpha" operator="arithmetic" k2="-1" k3="1"/>
<feColorMatrix type="matrix" values="0 0 0 0 0.722674 0 0 0 0 0.771447 0 0 0 0 0.868993 0 0 0 0.67 0"/>
<feBlend mode="normal" in2="shape" result="effect1_innerShadow_985:5105"/>
</filter>
<filter id="filter11_d_985:5105" x="12.6853" y="13.2151" width="143.799" height="117.547" filterUnits="userSpaceOnUse" color-interpolation-filters="sRGB">
<feFlood flood-opacity="0" result="BackgroundImageFix"/>
<feColorMatrix in="SourceAlpha" type="matrix" values="0 0 0 0 0 0 0 0 0 0 0 0 0 0 0 0 0 0 127 0" result="hardAlpha"/>
<feOffset dx="1.62581" dy="3.25161"/>
<feGaussianBlur stdDeviation="1.62581"/>
<feColorMatrix type="matrix" values="0 0 0 0 1 0 0 0 0 1 0 0 0 0 1 0 0 0 1 0"/>
<feBlend mode="normal" in2="BackgroundImageFix" result="effect1_dropShadow_985:5105"/>
<feBlend mode="normal" in="SourceGraphic" in2="effect1_dropShadow_985:5105" result="shape"/>
</filter>
<radialGradient id="paint0_radial_985:5105" cx="0" cy="0" r="1" gradientUnits="userSpaceOnUse" gradientTransform="translate(52.1844 47.1251) rotate(61.6081) scale(35.5394 49.6276)">
<stop stop-color="#DCE2EF"/>
<stop offset="0.860243" stop-color="#E5E9F3"/>
<stop offset="1" stop-color="#D2DBEC"/>
</radialGradient>
<radialGradient id="paint1_radial_985:5105" cx="0" cy="0" r="1" gradientUnits="userSpaceOnUse" gradientTransform="translate(48.529 38.3453) rotate(43.1211) scale(71.617 48.3789)">
<stop stop-color="white"/>
<stop offset="1" stop-color="#F5F6F8"/>
</radialGradient>
<linearGradient id="paint2_linear_985:5105" x1="96.5068" y1="58.5655" x2="30.0881" y2="69.4614" gradientUnits="userSpaceOnUse">
<stop stop-color="white"/>
<stop offset="1" stop-color="white" stop-opacity="0"/>
</linearGradient>
<radialGradient id="paint3_radial_985:5105" cx="0" cy="0" r="1" gradientUnits="userSpaceOnUse" gradientTransform="translate(45.2097 32.6538) rotate(90) scale(32.6538 46.1415)">
<stop stop-color="#9480FE"/>
<stop offset="0.796178" stop-color="#937FFB"/>
<stop offset="0.872964" stop-color="#CAC0FE"/>
<stop offset="0.927083" stop-color="#9783FD"/>
<stop offset="0.989583" stop-color="#7067D6"/>
</radialGradient>
<radialGradient id="paint4_radial_985:5105" cx="0" cy="0" r="1" gradientUnits="userSpaceOnUse" gradientTransform="translate(43.7373 33.1697) rotate(61.6081) scale(35.5394 49.6276)">
<stop stop-color="#DCE2EF"/>
<stop offset="0.860243" stop-color="#E9EDF5"/>
<stop offset="1" stop-color="#BBC9E3"/>
</radialGradient>
<linearGradient id="paint5_linear_985:5105" x1="85.8206" y1="11.6304" x2="2.08523" y2="47.8769" gradientUnits="userSpaceOnUse">
<stop stop-color="white" stop-opacity="0"/>
<stop offset="0.162377" stop-color="#E4E9F4"/>
<stop offset="0.304856" stop-color="#E4E9F4"/>
<stop offset="0.389299" stop-color="white" stop-opacity="0"/>
<stop offset="0.449395" stop-color="#E4E9F4"/>
<stop offset="0.52677" stop-color="#EFF2F8"/>
<stop offset="0.585369" stop-color="white" stop-opacity="0"/>
<stop offset="0.628608" stop-color="#DEE4F1"/>
<stop offset="0.7066" stop-color="#E2E8F3" stop-opacity="0"/>
<stop offset="0.746908" stop-color="#E7EBF5"/>
<stop offset="1" stop-color="white" stop-opacity="0"/>
</linearGradient>
<linearGradient id="paint6_linear_985:5105" x1="88.058" y1="44.6101" x2="21.6394" y2="55.506" gradientUnits="userSpaceOnUse">
<stop stop-color="#F6F8FB"/>
<stop offset="1" stop-color="white" stop-opacity="0"/>
</linearGradient>
<radialGradient id="paint7_radial_985:5105" cx="0" cy="0" r="1" gradientUnits="userSpaceOnUse" gradientTransform="translate(97.2146 89.9981) rotate(61.6081) scale(60.0711 83.8838)">
<stop stop-color="#DCE2EF"/>
<stop offset="0.860243" stop-color="#F2F4F9"/>
<stop offset="1" stop-color="#EDF1F7"/>
</radialGradient>
<radialGradient id="paint8_radial_985:5105" cx="0" cy="0" r="1" gradientUnits="userSpaceOnUse" gradientTransform="translate(91.0294 75.158) rotate(43.1211) scale(121.052 81.7732)">
<stop stop-color="white"/>
<stop offset="1" stop-color="#F5F6F8"/>
</radialGradient>
<linearGradient id="paint9_linear_985:5105" x1="172.125" y1="109.335" x2="59.8594" y2="127.752" gradientUnits="userSpaceOnUse">
<stop stop-color="white"/>
<stop offset="1" stop-color="white" stop-opacity="0"/>
</linearGradient>
<radialGradient id="paint10_radial_985:5105" cx="0" cy="0" r="1" gradientUnits="userSpaceOnUse" gradientTransform="translate(76.4164 55.1935) rotate(90) scale(55.1935 77.9914)">
<stop stop-color="#9480FE"/>
<stop offset="0.796178" stop-color="#937FFB"/>
<stop offset="0.872964" stop-color="#CAC0FE"/>
<stop offset="0.927083" stop-color="#9783FD"/>
<stop offset="0.989583" stop-color="#7067D6"/>
</radialGradient>
<radialGradient id="paint11_radial_985:5105" cx="0" cy="0" r="1" gradientUnits="userSpaceOnUse" gradientTransform="translate(82.9355 66.4098) rotate(61.6081) scale(60.0711 83.8838)">
<stop stop-color="#DCE2EF"/>
<stop offset="0.860243" stop-color="#F2F4F9"/>
<stop offset="1" stop-color="#EDF1F7"/>
</radialGradient>
<linearGradient id="paint12_linear_985:5105" x1="154.068" y1="30.0026" x2="12.5324" y2="91.2688" gradientUnits="userSpaceOnUse">
<stop stop-color="white" stop-opacity="0"/>
<stop offset="0.162377" stop-color="#E4E9F4"/>
<stop offset="0.304856" stop-color="#E4E9F4"/>
<stop offset="0.389299" stop-color="white" stop-opacity="0"/>
<stop offset="0.449395" stop-color="#E4E9F4"/>
<stop offset="0.52677" stop-color="#EFF2F8"/>
<stop offset="0.585369" stop-color="white" stop-opacity="0"/>
<stop offset="0.628608" stop-color="#DEE4F1"/>
<stop offset="0.7066" stop-color="#E2E8F3" stop-opacity="0"/>
<stop offset="0.746908" stop-color="#E7EBF5"/>
<stop offset="1" stop-color="white" stop-opacity="0"/>
</linearGradient>
<linearGradient id="paint13_linear_985:5105" x1="157.851" y1="85.7471" x2="45.5862" y2="104.164" gradientUnits="userSpaceOnUse">
<stop stop-color="white"/>
<stop offset="1" stop-color="white" stop-opacity="0"/>
</linearGradient>
<clipPath id="clip0_985:5105">
<rect width="176.4" height="164.206" fill="white" transform="translate(0.0898438)"/>
</clipPath>
</defs>
</svg>
