<svg width="60" height="60" viewBox="0 0 60 60" fill="none" xmlns="http://www.w3.org/2000/svg">
<path fill-rule="evenodd" clip-rule="evenodd" d="M44 12H57C57.5523 12 58 11.5523 58 11V10C58.0016 8.53048 58.0042 6.98583 57.071 4.95709C56.5721 3.87261 55.7984 2.86298 54.6136 2.13299C53.4332 1.40574 51.9163 1 50 1C49.6526 1 49.3194 1.01933 49 1.05629V1H21C18.2391 1 16.4376 2.27336 15.3672 3.88398C14.3324 5.44084 14 7.27195 14 8.5V50H2C1.41966 50 0.961195 50.4924 1.00254 51.0713C1.09443 52.3577 1.52879 54.2795 2.56914 55.9124C3.63169 57.5801 5.37427 59 8 59H36.9607C38.1676 59.09 39.9138 58.7865 41.3825 57.5871C42.9079 56.3413 44 54.2402 44 51V12ZM21 3H44.8749C44.2492 3.61606 43.7523 4.32845 43.3643 5.06888C42.2647 7.16686 42 9.53315 42 10.7646V51C42 53.7598 41.0921 55.2421 40.1175 56.038C39.104 56.8656 37.8749 57.0695 37.083 57.0035L37.0416 57H36.0148C33.3144 57 31.8405 55.9713 31.0216 54.8015C30.2701 53.728 30.0067 52.4407 30 51.4684V51.3928C30.0008 51.2808 30.005 51.1733 30.0123 51.0712L30 51.0703V51C30 50.4478 29.5523 50 29 50H16V8.5C16 7.56138 16.2676 6.14249 17.0328 4.99102C17.7624 3.89331 18.9609 3 21 3ZM28.0212 52H3.14927C3.33437 52.9022 3.68494 53.9416 4.25587 54.8377C5.05165 56.0867 6.22573 57 8 57H30.2922C29.9466 56.6753 29.6446 56.322 29.3831 55.9484C28.4865 54.6675 28.1094 53.2119 28.0212 52ZM45.1357 5.99728C44.4234 7.35647 44.1273 8.90204 44.0347 10H55.9945C55.9717 8.64299 55.8545 7.09841 55.254 5.79291C54.8904 5.00239 54.3578 4.32452 53.5645 3.83576C52.7668 3.34426 51.6337 3 50 3C47.4585 3 46.0074 4.33413 45.1357 5.99728Z" fill="#32D989"/>
<path fill-rule="evenodd" clip-rule="evenodd" d="M37.5536 35.0001L29 20.0312L20.4463 35.0001L37.5536 35.0001ZM30.7364 19.039C29.9687 17.6953 28.0313 17.6953 27.2635 19.039L18.7098 34.0078C17.9479 35.3412 18.9107 37.0001 20.4463 37.0001H37.5536C39.0892 37.0001 40.052 35.3412 39.2901 34.0078L30.7364 19.039Z" fill="#32D989"/>
<rect x="28" y="24" width="2" height="7" rx="1" fill="#32D989"/>
<circle cx="29" cy="33" r="1" fill="#32D989"/>
</svg>
