<svg width="48" height="48" viewBox="0 0 48 48" fill="none" xmlns="http://www.w3.org/2000/svg">
<path d="M7.25842 13C6.65875 13 6.25897 13.4 6.25897 14C6.25897 14.6 6.65875 15 7.25842 15C7.85809 15 8.25787 14.6 8.25787 14C8.25787 13.4 7.85809 13 7.25842 13Z" fill="#32D989"/>
<path d="M10.2568 13C9.6571 13 9.25732 13.4 9.25732 14C9.25732 14.6 9.6571 15 10.2568 15C10.8564 15 11.2562 14.6 11.2562 14C11.2562 13.4 10.8564 13 10.2568 13Z" fill="#32D989"/>
<path d="M13.2551 13C12.6555 13 12.2557 13.4 12.2557 14C12.2557 14.6 12.6555 15 13.2551 15C13.8548 15 14.2546 14.6 14.2546 14C14.2546 13.4 13.8548 13 13.2551 13Z" fill="#32D989"/>
<path fill-rule="evenodd" clip-rule="evenodd" d="M35.2429 13H32.3445C30.8454 13 29.5461 12 29.2463 10.6C28.9464 8.7 30.4456 7 32.2446 7H35.2429C35.8426 7 36.2424 6.6 36.2424 6C36.2424 5.4 35.8426 5 35.2429 5H32.4445C29.8459 5 27.5472 6.9 27.2474 9.5C26.9475 12.5 29.3462 15 32.2446 15H35.2429C35.8426 15 36.2424 14.6 36.2424 14C36.2424 13.4 35.8426 13 35.2429 13ZM42.0392 5H39.2407C38.6411 5 38.2413 5.4 38.2413 6C38.2413 6.6 38.6411 7 39.2407 7H42.1391C43.6383 7 44.9376 8 45.2374 9.4C45.5373 11.3 44.0381 13 42.2391 13H39.2407C38.6411 13 38.2413 13.4 38.2413 14C38.2413 14.6 38.6411 15 39.2407 15H42.2391C45.1375 15 47.5362 12.5 47.2363 9.5C46.9365 6.9 44.6378 5 42.0392 5ZM40.2402 9H34.2435C33.6438 9 33.2441 9.4 33.2441 10C33.2441 10.6 33.6438 11 34.2435 11H40.2402C40.8399 11 41.2396 10.6 41.2396 10C41.2396 9.4 40.8399 9 40.2402 9Z" fill="#32D989"/>
<path d="M41.2397 17H3.26062V13C3.26062 11.9 4.16012 11 5.25951 11H24.249C24.8487 11 25.2485 10.6 25.2485 10C25.2485 9.4 24.8487 9 24.249 9H5.25951C3.06073 9 1.26172 10.8 1.26172 13V17V19V35C1.26172 37.2 3.06073 39 5.25951 39H39.2408C41.4395 39 43.2385 37.2 43.2385 35V19C43.2385 17.9 42.339 17 41.2397 17ZM41.2397 35C41.2397 36.1 40.3401 37 39.2408 37H5.25951C4.16012 37 3.26062 36.1 3.26062 35V19H40.8399C41.0398 19 41.2397 19.2 41.2397 19.4V35Z" fill="#32D989"/>
</svg>
