<svg width="48" height="48" viewBox="0 0 48 48" fill="none" xmlns="http://www.w3.org/2000/svg">
<path d="M24.2851 1.87025C24.1949 1.59477 23.8052 1.59477 23.715 1.87025L23.1623 3.55733C23.1219 3.68058 23.0069 3.76393 22.8772 3.76393L21.0939 3.76393C20.8027 3.76393 20.6823 4.13707 20.9185 4.30732L22.357 5.34386C22.463 5.42025 22.5073 5.55647 22.4667 5.68065L21.9162 7.36085C21.8258 7.63681 22.1411 7.8674 22.3767 7.69763L23.8247 6.65425C23.9294 6.57877 24.0707 6.57877 24.1754 6.65425L25.6234 7.69763C25.859 7.86741 26.1743 7.63681 26.0838 7.36085L25.5334 5.68065C25.4927 5.55647 25.5371 5.42025 25.6431 5.34386L27.0816 4.30732C27.3178 4.13707 27.1974 3.76393 26.9062 3.76393L25.1229 3.76393C24.9932 3.76393 24.8782 3.68058 24.8378 3.55733L24.2851 1.87025Z" fill="#32D989"/>
<path d="M24.2851 39.8702C24.1949 39.5948 23.8052 39.5948 23.715 39.8702L23.1623 41.5573C23.1219 41.6806 23.0069 41.7639 22.8772 41.7639L21.0939 41.7639C20.8027 41.7639 20.6823 42.1371 20.9185 42.3073L22.357 43.3439C22.463 43.4203 22.5073 43.5565 22.4667 43.6806L21.9162 45.3608C21.8258 45.6368 22.1411 45.8674 22.3767 45.6976L23.8247 44.6542C23.9294 44.5788 24.0707 44.5788 24.1754 44.6542L25.6234 45.6976C25.859 45.8674 26.1743 45.6368 26.0838 45.3608L25.5334 43.6806C25.4927 43.5565 25.5371 43.4203 25.6431 43.3439L27.0816 42.3073C27.3178 42.1371 27.1974 41.7639 26.9062 41.7639L25.1229 41.7639C24.9932 41.7639 24.8782 41.6806 24.8378 41.5573L24.2851 39.8702Z" fill="#32D989"/>
<path d="M15.2109 37.8702C15.1206 37.5948 14.7309 37.5948 14.6407 37.8702L14.088 39.5573C14.0476 39.6806 13.9326 39.7639 13.8029 39.7639L12.0196 39.7639C11.7284 39.7639 11.608 40.1371 11.8443 40.3073L13.2827 41.3439C13.3887 41.4203 13.4331 41.5565 13.3924 41.6806L12.842 43.3608C12.7516 43.6368 13.0668 43.8674 13.3024 43.6976L14.7504 42.6542C14.8551 42.5788 14.9964 42.5788 15.1012 42.6542L16.5491 43.6976C16.7847 43.8674 17.1 43.6368 17.0096 43.3608L16.4591 41.6806C16.4185 41.5565 16.4628 41.4203 16.5688 41.3439L18.0073 40.3073C18.2435 40.1371 18.1231 39.7639 17.8319 39.7639L16.0486 39.7639C15.9189 39.7639 15.8039 39.6806 15.7635 39.5573L15.2109 37.8702Z" fill="#32D989"/>
<path d="M8.15318 30.8702C8.06293 30.5948 7.67324 30.5948 7.58299 30.8702L7.03031 32.5573C6.98993 32.6806 6.87492 32.7639 6.74522 32.7639L4.96196 32.7639C4.67075 32.7639 4.55031 33.1371 4.78657 33.3073L6.22501 34.3439C6.33102 34.4203 6.37539 34.5565 6.33471 34.6806L5.78428 36.3608C5.69388 36.6368 6.00916 36.8674 6.24476 36.6976L7.6927 35.6542C7.79744 35.5788 7.93873 35.5788 8.04347 35.6542L9.49141 36.6976C9.727 36.8674 10.0423 36.6368 9.95189 36.3608L9.40146 34.6806C9.36078 34.5565 9.40515 34.4203 9.51116 34.3439L10.9496 33.3073C11.1859 33.1371 11.0654 32.7639 10.7742 32.7639L8.99095 32.7639C8.86125 32.7639 8.74624 32.6806 8.70586 32.5573L8.15318 30.8702Z" fill="#32D989"/>
<path d="M5.38059 21.8702C5.29035 21.5948 4.90065 21.5948 4.81041 21.8702L4.25772 23.5573C4.21735 23.6806 4.10233 23.7639 3.97263 23.7639L2.18938 23.7639C1.89816 23.7639 1.77773 24.1371 2.01399 24.3073L3.45242 25.3439C3.55844 25.4203 3.60281 25.5565 3.56213 25.6806L3.0117 27.3608C2.92129 27.6368 3.23658 27.8674 3.47218 27.6976L4.92011 26.6542C5.02486 26.5788 5.16614 26.5788 5.27089 26.6542L6.71883 27.6976C6.95442 27.8674 7.26971 27.6368 7.1793 27.3608L6.62887 25.6806C6.58819 25.5565 6.63257 25.4203 6.73858 25.3439L8.17701 24.3073C8.41327 24.1371 8.29284 23.7639 8.00162 23.7639L6.21837 23.7639C6.08867 23.7639 5.97366 23.6806 5.93328 23.5573L5.38059 21.8702Z" fill="#32D989"/>
<path d="M7.14494 11.8702C7.05469 11.5948 6.665 11.5948 6.57475 11.8702L6.02207 13.5573C5.98169 13.6806 5.86668 13.7639 5.73698 13.7639L3.95372 13.7639C3.66251 13.7639 3.54207 14.1371 3.77833 14.3073L5.21677 15.3439C5.32278 15.4203 5.36715 15.5565 5.32647 15.6806L4.77604 17.3608C4.68564 17.6368 5.00092 17.8674 5.23652 17.6976L6.68446 16.6542C6.7892 16.5788 6.93049 16.5788 7.03523 16.6542L8.48317 17.6976C8.71876 17.8674 9.03405 17.6368 8.94365 17.3608L8.39322 15.6806C8.35254 15.5565 8.39691 15.4203 8.50292 15.3439L9.94135 14.3073C10.1776 14.1371 10.0572 13.7639 9.76597 13.7639L7.98271 13.7639C7.85301 13.7639 7.738 13.6806 7.69762 13.5573L7.14494 11.8702Z" fill="#32D989"/>
<path d="M14.2026 3.87025C14.1124 3.59477 13.7227 3.59477 13.6324 3.87025L13.0797 5.55733C13.0394 5.68058 12.9244 5.76393 12.7947 5.76393L11.0114 5.76393C10.7202 5.76393 10.5997 6.13707 10.836 6.30732L12.2744 7.34386C12.3805 7.42025 12.4248 7.55647 12.3841 7.68065L11.8337 9.36085C11.7433 9.63681 12.0586 9.8674 12.2942 9.69763L13.7421 8.65425C13.8469 8.57877 13.9882 8.57877 14.0929 8.65425L15.5408 9.69763C15.7764 9.86741 16.0917 9.63681 16.0013 9.36085L15.4509 7.68065C15.4102 7.55647 15.4546 7.42025 15.5606 7.34386L16.999 6.30732C17.2353 6.13707 17.1149 5.76393 16.8236 5.76393L15.0404 5.76393C14.9107 5.76393 14.7957 5.68058 14.7553 5.55733L14.2026 3.87025Z" fill="#32D989"/>
<path d="M34.3675 3.87025C34.2773 3.59477 33.8876 3.59477 33.7973 3.87025L33.2447 5.55733C33.2043 5.68058 33.0893 5.76393 32.9596 5.76393L31.1763 5.76393C30.8851 5.76393 30.7647 6.13707 31.0009 6.30732L32.4394 7.34386C32.5454 7.42025 32.5897 7.55647 32.5491 7.68065L31.9986 9.36085C31.9082 9.63681 32.2235 9.8674 32.4591 9.69763L33.9071 8.65425C34.0118 8.57877 34.1531 8.57877 34.2578 8.65425L35.7058 9.69763C35.9414 9.86741 36.2566 9.63681 36.1662 9.36085L35.6158 7.68065C35.5751 7.55647 35.6195 7.42025 35.7255 7.34386L37.164 6.30732C37.4002 6.13707 37.2798 5.76393 36.9886 5.76393L35.2053 5.76393C35.0756 5.76393 34.9606 5.68058 34.9202 5.55733L34.3675 3.87025Z" fill="#32D989"/>
<path d="M41.4252 10.8702C41.335 10.5948 40.9453 10.5948 40.855 10.8702L40.3023 12.5573C40.262 12.6806 40.147 12.7639 40.0172 12.7639L38.234 12.7639C37.9428 12.7639 37.8223 13.1371 38.0586 13.3073L39.497 14.3439C39.6031 14.4203 39.6474 14.5565 39.6067 14.6806L39.0563 16.3608C38.9659 16.6368 39.2812 16.8674 39.5168 16.6976L40.9647 15.6542C41.0695 15.5788 41.2108 15.5788 41.3155 15.6542L42.7634 16.6976C42.999 16.8674 43.3143 16.6368 43.2239 16.3608L42.6735 14.6806C42.6328 14.5565 42.6772 14.4203 42.7832 14.3439L44.2216 13.3073C44.4579 13.1371 44.3375 12.7639 44.0462 12.7639L42.263 12.7639C42.1333 12.7639 42.0183 12.6806 41.9779 12.5573L41.4252 10.8702Z" fill="#32D989"/>
<path d="M43.1896 20.8702C43.0993 20.5948 42.7096 20.5948 42.6194 20.8702L42.0667 22.5573C42.0263 22.6806 41.9113 22.7639 41.7816 22.7639L39.9983 22.7639C39.7071 22.7639 39.5867 23.1371 39.823 23.3073L41.2614 24.3439C41.3674 24.4203 41.4118 24.5565 41.3711 24.6806L40.8207 26.3608C40.7303 26.6368 41.0455 26.8674 41.2811 26.6976L42.7291 25.6542C42.8338 25.5788 42.9751 25.5788 43.0798 25.6542L44.5278 26.6976C44.7634 26.8674 45.0787 26.6368 44.9883 26.3608L44.4378 24.6806C44.3972 24.5565 44.4415 24.4203 44.5475 24.3439L45.986 23.3073C46.2222 23.1371 46.1018 22.7639 45.8106 22.7639L44.0273 22.7639C43.8976 22.7639 43.7826 22.6806 43.7422 22.5573L43.1896 20.8702Z" fill="#32D989"/>
<path d="M41.677 30.8702C41.5867 30.5948 41.197 30.5948 41.1068 30.8702L40.5541 32.5573C40.5137 32.6806 40.3987 32.7639 40.269 32.7639L38.4858 32.7639C38.1946 32.7639 38.0741 33.1371 38.3104 33.3073L39.7488 34.3439C39.8548 34.4203 39.8992 34.5565 39.8585 34.6806L39.3081 36.3608C39.2177 36.6368 39.533 36.8674 39.7686 36.6976L41.2165 35.6542C41.3212 35.5788 41.4625 35.5788 41.5673 35.6542L43.0152 36.6976C43.2508 36.8674 43.5661 36.6368 43.4757 36.3608L42.9253 34.6806C42.8846 34.5565 42.929 34.4203 43.035 34.3439L44.4734 33.3073C44.7097 33.1371 44.5892 32.7639 44.298 32.7639L42.5148 32.7639C42.3851 32.7639 42.27 32.6806 42.2297 32.5573L41.677 30.8702Z" fill="#32D989"/>
<path d="M34.3675 37.8702C34.2773 37.5948 33.8876 37.5948 33.7973 37.8702L33.2447 39.5573C33.2043 39.6806 33.0893 39.7639 32.9596 39.7639L31.1763 39.7639C30.8851 39.7639 30.7647 40.1371 31.0009 40.3073L32.4394 41.3439C32.5454 41.4203 32.5897 41.5565 32.5491 41.6806L31.9986 43.3608C31.9082 43.6368 32.2235 43.8674 32.4591 43.6976L33.9071 42.6542C34.0118 42.5788 34.1531 42.5788 34.2578 42.6542L35.7058 43.6976C35.9414 43.8674 36.2566 43.6368 36.1662 43.3608L35.6158 41.6806C35.5751 41.5565 35.6195 41.4203 35.7255 41.3439L37.164 40.3073C37.4002 40.1371 37.2798 39.7639 36.9886 39.7639L35.2053 39.7639C35.0756 39.7639 34.9606 39.6806 34.9202 39.5573L34.3675 37.8702Z" fill="#32D989"/>
<path fill-rule="evenodd" clip-rule="evenodd" d="M16.9428 21V32H31.0582V21H16.9428ZM15.9345 19C15.3777 19 14.9263 19.4477 14.9263 20V33C14.9263 33.5523 15.3777 34 15.9345 34H32.0664C32.6233 34 33.0747 33.5523 33.0747 33V20C33.0747 19.4477 32.6233 19 32.0664 19H15.9345Z" fill="#32D989"/>
<path fill-rule="evenodd" clip-rule="evenodd" d="M28.0335 19V18C28.0335 15.7909 26.2279 14 24.0005 14C21.7732 14 19.9675 15.7909 19.9675 18V19H28.0335ZM24.0005 12C20.6595 12 17.951 14.6863 17.951 18V21H30.05V18C30.05 14.6863 27.3415 12 24.0005 12Z" fill="#32D989"/>
<path d="M22.9922 24C22.9922 23.4477 23.4436 23 24.0005 23C24.5573 23 25.0087 23.4477 25.0087 24V29C25.0087 29.5523 24.5573 30 24.0005 30C23.4436 30 22.9922 29.5523 22.9922 29V24Z" fill="#32D989"/>
<path d="M26.017 25C26.017 26.1046 25.1141 27 24.0005 27C22.8868 27 21.984 26.1046 21.984 25C21.984 23.8954 22.8868 23 24.0005 23C25.1141 23 26.017 23.8954 26.017 25Z" fill="#32D989"/>
</svg>
