<svg width="60" height="60" viewBox="0 0 60 60" fill="none" xmlns="http://www.w3.org/2000/svg">
<path fill-rule="evenodd" clip-rule="evenodd" d="M13.0086 15.1392L2.06324 19.2928L2.45809 29.4067C2.7431 36.7077 6.64738 43.468 13.0086 47.6447C19.3699 43.468 23.2742 36.7077 23.5592 29.4067L23.954 19.2928L13.0086 15.1392ZM12.299 13.2693C12.7562 13.0958 13.2611 13.0958 13.7182 13.2693L24.6636 17.4229C25.4672 17.7278 25.9861 18.512 25.9525 19.3708L25.5577 29.4847C25.2449 37.4974 20.9434 44.869 14.0116 49.3784C13.4016 49.7753 12.6157 49.7753 12.0057 49.3784C5.07393 44.869 0.772404 37.4974 0.459608 29.4847L0.0647661 19.3708C0.0312393 18.512 0.550118 17.7278 1.35365 17.4229L12.299 13.2693Z" fill="#32D989"/>
<path fill-rule="evenodd" clip-rule="evenodd" d="M39.0087 2H21.0087C19.9041 2 19.0087 2.89543 19.0087 4H41.0087C41.0087 2.89543 40.1132 2 39.0087 2ZM21.0087 0C18.7995 0 17.0087 1.79086 17.0087 4V6H43.0087V4C43.0087 1.79086 41.2178 0 39.0087 0H21.0087Z" fill="#32D989"/>
<path fill-rule="evenodd" clip-rule="evenodd" d="M25.0087 12L35.0087 12C36.1132 12 37.0087 11.1046 37.0087 10L37.0087 6L23.0087 6L23.0087 10C23.0087 11.1046 23.9041 12 25.0087 12ZM35.0087 14C37.2178 14 39.0087 12.2091 39.0087 10L39.0087 4L21.0087 4L21.0087 10C21.0087 12.2091 22.7995 14 25.0087 14L35.0087 14Z" fill="#32D989"/>
<path fill-rule="evenodd" clip-rule="evenodd" d="M13.0087 36C16.3224 36 19.0087 33.3137 19.0087 30C19.0087 26.6863 16.3224 24 13.0087 24C9.69496 24 7.00867 26.6863 7.00867 30C7.00867 33.3137 9.69496 36 13.0087 36ZM13.0087 38C17.4269 38 21.0087 34.4183 21.0087 30C21.0087 25.5817 17.4269 22 13.0087 22C8.59039 22 5.00867 25.5817 5.00867 30C5.00867 34.4183 8.59039 38 13.0087 38Z" fill="#32D989"/>
<path fill-rule="evenodd" clip-rule="evenodd" d="M16.3016 29.7071C16.6921 29.3166 16.6921 28.6834 16.3016 28.2929C15.9111 27.9024 15.2779 27.9024 14.8874 28.2929L12.0087 31.1716L11.13 30.2929C10.7394 29.9024 10.1063 29.9024 9.71574 30.2929C9.32522 30.6834 9.32522 31.3166 9.71574 31.7071L11.3015 33.2929C11.6921 33.6834 12.3252 33.6834 12.7157 33.2929L13.4137 32.5949C13.4168 32.5919 13.4199 32.5888 13.4229 32.5858L16.3016 29.7071Z" fill="#32D989"/>
<path fill-rule="evenodd" clip-rule="evenodd" d="M14.0087 6H46.0087C47.1132 6 48.0087 6.89543 48.0087 8V9C48.0087 9.03481 48.0104 9.0692 48.0139 9.10309V12.8384H48.0217C48.0131 12.891 48.0087 12.945 48.0087 13V56C48.0087 57.1046 47.1132 58 46.0087 58H19.0087C18.9517 58 18.8958 58.0048 18.8415 58.0139H15.1759C15.1215 58.0048 15.0656 58 15.0087 58H14.0087C12.9041 58 12.0087 57.1046 12.0087 56V52C12.0087 51.4477 11.561 51 11.0087 51C10.4564 51 10.0087 51.4477 10.0087 52V56C10.0087 58.2091 11.7995 60 14.0087 60H14.2413H15.0087H19.0087H20.1283H46.0087C48.2178 60 50.0087 58.2091 50.0087 56V13C50.0087 12.945 50.0042 12.891 49.9957 12.8384H50.0087V9V8.38403V8C50.0087 5.79086 48.2178 4 46.0087 4H14.0087C11.7995 4 10.0087 5.79086 10.0087 8V11C10.0087 11.5523 10.4564 12 11.0087 12C11.561 12 12.0087 11.5523 12.0087 11V8C12.0087 6.89543 12.9041 6 14.0087 6Z" fill="#32D989"/>
</svg>
