<svg width="48" height="48" viewBox="0 0 48 48" fill="none" xmlns="http://www.w3.org/2000/svg">
<path d="M20 23.3374C19.4 23.3374 18.9 23.8374 18.9 24.4374V35.0374L16.6 32.7374C16.2 32.3374 15.5 32.3374 15.1 32.7374C14.7 33.1374 14.7 33.8374 15.1 34.2374L19.2 38.3374C19.4 38.5374 19.7 38.6374 19.9 38.6374C20.2 38.6374 20.4 38.5374 20.6 38.3374L24.7 34.2374C24.9 34.0374 25 33.7374 25 33.5374C25 33.3374 25 32.9374 24.8 32.7374C24.4 32.3374 23.7 32.3374 23.3 32.7374L21 35.0374V24.4374C21 23.8374 20.6 23.3374 20 23.3374Z" fill="#32D989"/>
<path d="M27.4 36.5376C26.8 36.5376 26.3 37.0376 26.3 37.6376V40.9376C26.3 41.2376 26 41.5376 25.7 41.5376H14.2C13.9 41.5376 13.6 41.2376 13.6 40.9376V37.6376C13.6 37.0376 13.1 36.5376 12.5 36.5376C11.9 36.5376 11.4 37.0376 11.4 37.6376V40.9376C11.4 42.4376 12.6 43.6376 14.1 43.6376H25.6C27.1 43.6376 28.3 42.4376 28.3 40.9376V37.6376C28.4 36.9376 28 36.5376 27.4 36.5376Z" fill="#32D989"/>
<path d="M37.9001 24.0375C32.4001 24.0375 27.8 19.5375 27.8 13.9375C27.8 8.3375 32.4001 3.9375 37.9001 3.9375C43.4001 3.9375 48 8.4375 48 14.0375C48 19.6375 43.5001 24.0375 37.9001 24.0375ZM37.9001 5.9375C33.5001 5.9375 29.8 9.5375 29.8 14.0375C29.8 18.4375 33.4001 22.1375 37.9001 22.1375C42.3001 22.1375 46 18.5375 46 14.0375C46 9.5375 42.4001 5.9375 37.9001 5.9375Z" fill="#32D989"/>
<path d="M34.7 17.2376C33.6 17.2376 32.8 16.6376 32.4 16.2376C31.8 15.6376 30.9 14.0376 32.1 12.2376L32.2 12.1376C33.8 10.3376 35.7 10.7376 36.7 11.4376L36.8 11.5376L40.4 15.0376C40.8 15.2376 41.2 15.2376 41.5 15.0376C42 14.8376 42.3 14.2376 42.2 13.7376C42.2 13.4376 42 13.2376 41.7 13.0376C41 12.5376 40.4 12.8376 40.1 13.0376L39.8 13.4376L38.3 12.0376L38.8 11.5376C39.5 10.9376 41.3 10.1376 42.9 11.4376C43.5 11.9376 44 12.6376 44.1 13.3376C44.3 14.7376 43.6 16.1376 42.3 16.7376C41.6 17.0376 40.5 17.3376 39.2 16.5376L39 16.4376L35.4 12.9376C35.1 12.7376 34.5 12.4376 33.7 13.2376C33.2 14.0376 33.7 14.5376 33.8 14.7376C34 15.0376 34.6 15.4376 35.5 14.8376L35.9 14.4376L37.3 15.8376L36.7 16.3376C36.1 17.0376 35.4 17.2376 34.7 17.2376Z" fill="#32D989"/>
<path d="M24.1 13.4377H17.2L14.2 9.4377C14 9.2377 13.7 9.1377 13.5 9.1377H4.5C1.9 9.2377 0 11.1377 0 13.5377V35.9377C0 38.3377 1.9 40.2377 4.3 40.2377H7.6C8.2 40.2377 8.7 39.7377 8.7 39.1377C8.7 38.5377 8.2 38.0377 7.6 38.0377H4.3C3.1 38.0377 2.1 37.0377 2.1 35.8377V13.5377C2.1 12.3377 3.1 11.3377 4.3 11.3377H13L16 15.3377C16.2 15.5377 16.5 15.6377 16.7 15.6377H24.1C24.7 15.6377 25.2 15.1377 25.2 14.5377C25.1 13.9377 24.6 13.4377 24.1 13.4377Z" fill="#32D989"/>
<path d="M37.7999 27.4376V35.9376C37.7999 37.1376 36.7999 38.1376 35.5999 38.1376H32.2999C31.6999 38.1376 31.2 38.6376 31.2 39.2376C31.2 39.8376 31.6999 40.3376 32.2999 40.3376H35.5999C37.9999 40.3376 39.9 38.4376 39.9 36.0376V27.5376C39.9 26.9376 39.3999 26.4376 38.7999 26.4376C38.2999 26.3376 37.7999 26.8376 37.7999 27.4376Z" fill="#32D989"/>
</svg>
