<svg width="48" height="48" viewBox="0 0 48 48" fill="none" xmlns="http://www.w3.org/2000/svg">
<path fill-rule="evenodd" clip-rule="evenodd" d="M24 45C35.598 45 45 35.598 45 24C45 12.402 35.598 3 24 3C12.402 3 3 12.402 3 24C3 35.598 12.402 45 24 45ZM24 47C36.7025 47 47 36.7025 47 24C47 11.2975 36.7025 1 24 1C11.2975 1 1 11.2975 1 24C1 36.7025 11.2975 47 24 47Z" fill="#32D989"/>
<path fill-rule="evenodd" clip-rule="evenodd" d="M11.4513 28.7582C13.3503 33.5842 18.0527 37 23.553 37C29.4191 37 34.3777 33.1146 35.9958 27.7769C36.1325 27.3258 36.5381 27 37.0094 27C37.652 27 38.1348 27.5902 37.9549 28.2071C36.1362 34.4435 30.3767 39 23.553 39C17.1957 39 11.7621 35.0452 9.57828 29.4616L8.94086 30.9445C8.72276 31.4519 8.13462 31.6864 7.62723 31.4683C7.11983 31.2502 6.88531 30.6621 7.10342 30.1547L8.28815 27.3985L8.68306 26.4798C8.90116 25.9724 9.48929 25.7379 9.99669 25.956L10.9154 26.3509L13.6716 27.5356C14.179 27.7537 14.4135 28.3419 14.1954 28.8493C13.9773 29.3567 13.3891 29.5912 12.8818 29.3731L11.4513 28.7582ZM39.9421 17.7018C39.4437 17.4638 38.8468 17.6749 38.6088 18.1733L37.9091 19.6387C36.041 13.4815 30.3203 9 23.553 9C16.3448 9 10.3242 14.0843 8.88163 20.8623C8.75441 21.4601 9.22815 22 9.83931 22C10.3379 22 10.7578 21.6347 10.8667 21.1481C12.1667 15.3403 17.353 11 23.553 11C29.4306 11 34.3972 14.9007 36.0053 20.2546L34.6089 19.5879C34.1105 19.3499 33.5136 19.561 33.2756 20.0594C33.0376 20.5578 33.2487 21.1547 33.7471 21.3927L36.4543 22.6854L37.3567 23.1162C37.8551 23.3542 38.4521 23.1431 38.69 22.6447L39.1209 21.7423L40.4136 19.0351C40.6516 18.5367 40.4405 17.9398 39.9421 17.7018Z" fill="#32D989"/>
</svg>
